<svg xmlns="http://www.w3.org/2000/svg" width="29.258" height="28.003" viewBox="0 0 29.258 28.003">
  <path id="Path_290" data-name="Path 290" d="M13.13-15.121l-7.99-1.165L1.569-23.527a1.752,1.752,0,0,0-3.139,0l-3.571,7.241-7.99,1.165a1.751,1.751,0,0,0-.968,2.986L-8.318-6.5-9.685,1.455A1.749,1.749,0,0,0-7.148,3.3L0-.459,7.148,3.3A1.75,1.75,0,0,0,9.685,1.455L8.318-6.5l5.78-5.633A1.751,1.751,0,0,0,13.13-15.121ZM5.5-7.421,6.8.148,0-3.423-6.8.148l1.3-7.569L-11-12.78l7.6-1.1L0-20.776l3.4,6.891,7.6,1.1Z" transform="translate(14.629 24.501)" fill="#70c8b8"/>
</svg>
