<svg xmlns="http://www.w3.org/2000/svg" width="19.672" height="11.658" viewBox="0 0 19.672 11.658">
  <path id="Subtraction_17" data-name="Subtraction 17" d="M10225.842-4419.342h-8.014a5.836,5.836,0,0,1-5.829-5.829,5.836,5.836,0,0,1,5.829-5.829h8.014a5.836,5.836,0,0,1,5.829,5.829A5.836,5.836,0,0,1,10225.842-4419.342Zm-7.649-8.017a2.189,2.189,0,0,0-2.185,2.188,2.187,2.187,0,0,0,2.185,2.185h7.285a2.188,2.188,0,0,0,2.186-2.185,2.189,2.189,0,0,0-2.186-2.187Z" transform="translate(-10211.999 4431)" fill="#333"/>
</svg>
