<svg xmlns="http://www.w3.org/2000/svg" id="Capa_1" data-name="Capa 1" viewBox="0 0 80 80"><defs><style>      .cls-1 {        fill: #4f4f4f;        stroke-width: 0px;      }    </style></defs><path class="cls-1" d="M24.47,2.49c1.59.35,3.23.56,4.77,1.06,9.13,2.97,14.95,12.22,13.73,21.7-1.17,9.12-7.98,16.16-17.05,17.65-10.84,1.77-21.45-5.92-23.14-16.78-.09-.55-.19-1.1-.28-1.65,0-1.12,0-2.25,0-3.37.05-.19.11-.37.13-.56.85-8.01,6.68-15,14.41-17.19,1.33-.38,2.71-.58,4.06-.86,1.12,0,2.25,0,3.37,0ZM5.61,23.19c.32,9.72,8.21,17.1,17.95,16.8,9.34-.29,16.74-8.36,16.43-17.93-.29-9.18-8.39-16.77-17.57-16.44-9.59.34-17.12,8.22-16.81,17.58Z"></path><path class="cls-1" d="M43.79,65.01c-.71,0-1.42.02-2.12,0-.92-.04-1.63-.55-1.62-1.37,0-2.44-.05-4.89.22-7.3.25-2.29,1.52-4.17,3.16-5.81,6.29-6.27,12.57-12.56,18.86-18.85.67-.67,1.33-1.36,2.03-2.01,3.04-2.85,7.96-2.8,10.89.08,2.97,2.93,3.11,7.66.28,10.79-.97,1.07-2.01,2.06-3.03,3.08-5.42,5.42-10.91,10.78-16.24,16.29-3.44,3.56-7.45,5.41-12.41,5.11ZM43.12,61.8c3.9.37,7.25-.51,10.01-3.29,6.51-6.54,13.05-13.06,19.57-19.58.22-.22.45-.45.65-.7.78-.98,1.14-2.1,1.01-3.35-.21-1.92-1.21-3.3-3.04-3.94-1.89-.65-3.62-.27-5.05,1.17-6.91,6.9-13.82,13.8-20.7,20.73-.71.71-1.29,1.6-1.74,2.5-1.02,2.03-.63,4.24-.7,6.45Z"></path><path class="cls-1" d="M39.97,77.51c-4.61,0-9.23.01-13.84,0-7.05-.02-12.71-4.71-14.04-11.63-.12-.64-.2-1.31-.21-1.96-.02-4.79-.02-9.57-.01-14.36,0-1.29,1.04-2.07,2.13-1.62.72.3.98.88.98,1.64-.01,2.17,0,4.35,0,6.52,0,2.32,0,4.64,0,6.96.01,6.56,4.75,11.32,11.31,11.34,7.23.02,14.45,0,21.68,0,2.32,0,4.65.1,6.95-.09,5.83-.47,10.02-5.09,10.09-10.95.02-1.46,0-2.93,0-4.39,0-1.07.62-1.76,1.53-1.78.94-.01,1.61.71,1.57,1.81-.07,2.41.07,4.86-.33,7.22-1.06,6.34-6.88,11.15-13.33,11.28-.12,0-.24,0-.37,0-4.71,0-9.42,0-14.14,0Z"></path><path class="cls-1" d="M53.27,21.24c2.55-.13,5.18.38,7.59,1.78.42.24.78.73.95,1.19.22.59-.06,1.15-.59,1.53-.55.39-1.13.39-1.72.07-1.29-.72-2.66-1.23-4.14-1.34-1.19-.09-2.39-.08-3.58-.11-.29,0-.59,0-.88-.01-.9-.06-1.53-.71-1.51-1.56.01-.84.66-1.5,1.55-1.54.71-.03,1.42,0,2.34,0Z"></path><path class="cls-1" d="M20.71,30.62c-1.58-.04-2.97-.56-4.11-1.66-1.4-1.36-2.79-2.74-4.16-4.12-.72-.72-.76-1.62-.14-2.28.63-.66,1.6-.65,2.34.07,1.29,1.26,2.57,2.54,3.86,3.8,1.44,1.41,2.92,1.42,4.36.03,2.65-2.56,5.29-5.13,7.96-7.68.29-.27.66-.52,1.03-.63.65-.19,1.21.06,1.59.63.38.56.38,1.15,0,1.72-.13.2-.31.37-.49.54-2.7,2.61-5.41,5.22-8.1,7.84-1.16,1.13-2.54,1.69-4.14,1.74Z"></path></svg>