<svg xmlns="http://www.w3.org/2000/svg" xmlns:xlink="http://www.w3.org/1999/xlink" id="paso_1" data-name="paso 1" viewBox="0 0 3008.31 4610.64"><defs><style>      .cls-1 {        font-family: Montserrat-Regular, Montserrat;      }      .cls-2 {        font-family: Montserrat-ExtraBold, Montserrat;      }      .cls-2, .cls-3, .cls-4 {        font-weight: 700;      }      .cls-5 {        filter: url(#drop-shadow-4);      }      .cls-6 {        font-family: Montserrat-Medium, Montserrat;        font-weight: 500;      }      .cls-6, .cls-7, .cls-8, .cls-9, .cls-10, .cls-11 {        fill: #fff;      }      .cls-6, .cls-9 {        font-size: 21.49px;      }      .cls-7 {        filter: url(#drop-shadow-3);      }      .cls-7, .cls-12, .cls-13, .cls-10, .cls-11 {        stroke-width: 0px;      }      .cls-8 {        font-size: 12.84px;      }      .cls-8, .cls-14, .cls-9 {        font-family: Montserrat-Black, Montserrat;        font-weight: 800;      }      .cls-15 {        font-size: 25.43px;      }      .cls-16 {        filter: url(#drop-shadow-2);      }      .cls-12, .cls-17, .cls-3, .cls-4 {        fill: #4f4f4f;      }      .cls-13, .cls-14 {        fill: #35d32d;      }      .cls-17 {        font-size: 19.25px;      }      .cls-3 {        letter-spacing: 0em;      }      .cls-3, .cls-4 {        font-family: Montserrat-Bold, Montserrat;      }      .cls-10 {        filter: url(#drop-shadow-5);      }      .cls-11 {        filter: url(#drop-shadow-1);      }    </style><filter id="drop-shadow-1" filterUnits="userSpaceOnUse"><feGaussianBlur stdDeviation="14.17"></feGaussianBlur></filter><filter id="drop-shadow-2" filterUnits="userSpaceOnUse"><feGaussianBlur stdDeviation="28.35"></feGaussianBlur></filter><filter id="drop-shadow-3" filterUnits="userSpaceOnUse"><feGaussianBlur stdDeviation="14.17"></feGaussianBlur></filter><filter id="drop-shadow-4" filterUnits="userSpaceOnUse"><feGaussianBlur stdDeviation="28.35"></feGaussianBlur></filter><filter id="drop-shadow-5" filterUnits="userSpaceOnUse"><feGaussianBlur stdDeviation="14.17"></feGaussianBlur></filter><image id="image" width="1499" height="1268"></image></defs><g><rect class="cls-11" x="6028.71" y="-1965.46" width="559.12" height="332.22" rx="-650.51" ry="-650.51"></rect><text class="cls-15" transform="translate(6189.47 -1893.33)"><tspan class="cls-14" x="0" y="0">Plan</tspan><tspan class="cls-3" x="61.28" y="0" xml:space="preserve"> de acción y evaluación</tspan></text><g><path class="cls-12" d="M6130.12-1862.46c-1.37-.19-2.75-.35-4.12-.57-14.77-2.44-27.09-14.25-30.19-28.93-4.28-20.26,8.09-39.81,28.2-44.57,5.38-1.27,10.79-1.26,16.2-.18.07.01.14.04.21.06,1.02.24,1.58,1,1.39,1.89-.2.89-1.02,1.33-2.04,1.19-1.88-.27-3.76-.62-5.66-.72-8.26-.41-15.74,1.89-22.33,6.87-7.31,5.53-11.86,12.88-13.24,21.94-1.78,11.64,1.59,21.74,9.91,30.08,5.13,5.14,11.39,8.34,18.57,9.37,12.39,1.78,22.9-2.02,31.3-11.33,4.98-5.52,7.67-12.11,8.4-19.5.34-3.47.1-6.93-.63-10.34-.16-.73-.07-1.37.56-1.84.49-.37,1.08-.49,1.57-.14.38.27.78.73.87,1.17.32,1.57.51,3.18.75,4.77.05.31.09.62.14.93v4.69c-.04.19-.11.38-.12.57-.44,5.71-2.05,11.07-5.01,15.97-5.95,9.87-14.58,15.93-25.93,18.06-1.36.26-2.74.39-4.12.57h-4.69Z"></path><path class="cls-12" d="M6169.98-1922.99c-.34.41-.66.84-1.03,1.21-2.2,2.22-4.44,4.4-6.62,6.64-1.74,1.78-3.8,2.65-6.29,2.62-2.69-.03-5.37,0-8.06-.02-.55,0-.95.14-1.35.55-4.18,4.21-8.38,8.4-12.58,12.6-.21.21-.41.42-.64.6-.62.48-1.46.42-2-.12-.54-.54-.63-1.38-.18-2.01.17-.24.38-.44.59-.65,4.21-4.21,8.42-8.43,12.65-12.63.36-.36.5-.71.5-1.22-.02-2.69,0-5.37-.02-8.06-.02-2.5.82-4.61,2.63-6.36,2.35-2.28,4.65-4.61,6.96-6.92.55-.55,1.13-.95,1.95-.61.83.34,1.01,1.04,1.01,1.85,0,3.2,0,6.4,0,9.6,0,.27,0,.53,0,.92.3,0,.56,0,.81,0,3.17,0,6.35.02,9.52-.01.97-.01,1.71.25,2.16,1.15v.88ZM6148.11-1915.67c3.07,0,6.02.04,8.97-.02,1.08-.02,1.99-.62,2.76-1.38.85-.84,1.69-1.7,2.54-2.54.71-.69,1.43-1.37,2.31-2.21-.49-.02-.72-.05-.96-.05-2.47,0-4.93,0-7.4,0-1.43,0-1.98-.57-1.99-2.01,0-2.44,0-4.88,0-7.33,0-.25-.02-.51-.03-.61-1.74,1.66-3.53,3.31-5.24,5.04-.68.69-.94,1.64-.95,2.63,0,1.29,0,2.59-.01,3.88,0,1.51,0,3.02,0,4.59Z"></path><path class="cls-12" d="M6157.59-1899.97c-.15,12.36-9.23,22.9-21.4,24.73-13.45,2.02-26.06-7.1-28.38-20.54-2.34-13.55,6.86-26.55,20.4-28.85,2.94-.5,5.88-.48,8.82.04.74.13,1.36.4,1.6,1.19.34,1.16-.62,2.09-1.91,1.95-1.69-.18-3.4-.41-5.1-.38-10.03.18-19.02,7.99-20.7,17.89-1.72,10.12,3.31,19.66,12.62,23.92,12.85,5.88,28.18-2.3,30.48-16.26.44-2.66.4-5.3-.08-7.94-.19-1.02.31-1.81,1.23-1.99.88-.17,1.66.36,1.82,1.37.25,1.61.41,3.24.61,4.86Z"></path><path class="cls-12" d="M6132.4-1887.49c-6.34-.02-11.84-4.91-12.4-11.03-.61-6.66,3.62-12.48,9.99-13.74.19-.04.39-.06.58-.08.98-.13,1.72.39,1.85,1.32.12.85-.45,1.6-1.39,1.74-2.21.34-4.05,1.35-5.56,2.99-2.66,2.9-3.18,7.16-1.33,10.7,1.82,3.48,5.63,5.38,9.7,4.85,3.67-.48,6.89-3.49,7.71-7.19.06-.29.1-.58.18-.86.23-.82.99-1.3,1.79-1.17.76.13,1.38.82,1.24,1.64-.2,1.12-.45,2.26-.89,3.3-1.93,4.6-6.5,7.56-11.48,7.55Z"></path></g><g><g class="cls-16"><rect class="cls-12" x="5958.83" y="-1924.3" width="104.55" height="42.88" rx="-919.27" ry="-919.27"></rect></g><text class="cls-6" transform="translate(5974.63 -1893.31)"><tspan x="0" y="0">Paso 4</tspan></text></g></g><g><rect class="cls-7" x="6028.71" y="-2457.8" width="559.12" height="291.71" rx="-937.19" ry="-937.19"></rect><text class="cls-15" transform="translate(6192 -2378.81)"><tspan class="cls-14" x="0" y="0">Monitoreo</tspan><tspan class="cls-4" x="142.02" y="0" xml:space="preserve"> en tiempo real</tspan></text><g><path class="cls-12" d="M6094.5-2413.15c.12-.56.24-1.13.38-1.69,1.56-6.48,7.15-10.86,13.94-10.87,10.08-.01,20.17,0,30.25,0,5.4,0,10.79-.01,16.19,0,6.77.02,12.37,4.41,13.89,10.91.26,1.11.36,2.27.37,3.41.03,9.21.02,18.41.01,27.62,0,8.12-6.13,14.29-14.24,14.32-6.91.03-13.82,0-20.73,0-.29,0-.57,0-.91,0v9.38c.29,0,.57,0,.85,0,4.71,0,9.42,0,14.14,0,1.39,0,2.12.54,2.14,1.55.01,1.04-.74,1.6-2.17,1.6-11.06,0-22.12,0-33.18,0-1.42,0-2.18-.57-2.15-1.61.02-1.01.75-1.54,2.15-1.54,4.69,0,9.38,0,14.06,0,.29,0,.57,0,.91,0v-9.38c-.29,0-.57,0-.85,0-6.93,0-13.87.02-20.8,0-6.76-.02-12.3-4.38-13.86-10.85-.14-.59-.25-1.19-.37-1.78,0-10.36,0-20.71,0-31.07ZM6132.08-2422.57c-7.67,0-15.33,0-23,0-.71,0-1.42,0-2.12.11-5.58.94-9.33,5.37-9.34,11.06-.01,9.21,0,18.41,0,27.62,0,.73.05,1.47.19,2.18,1.04,5.39,5.44,9.02,10.95,9.02,15.46,0,30.91,0,46.37,0,6.5,0,11.27-4.77,11.27-11.3,0-9.13,0-18.27,0-27.4,0-.75-.04-1.52-.18-2.26-1.03-5.43-5.4-9.04-10.99-9.04-7.72-.01-15.43,0-23.15,0Z"></path><path class="cls-12" d="M6121.52-2378.81c-10.38-.03-18.75-8.45-18.72-18.81.03-10.31,8.49-18.73,18.78-18.7,10.36.03,18.76,8.49,18.72,18.83-.04,10.33-8.46,18.7-18.78,18.68ZM6119.97-2412.96c-5.28.33-11.66,4.32-13.53,11.45-1.83,6.97,1.29,14.21,7.65,17.69,6.06,3.32,13.05,2.01,17.29-1.78-.21-.18-.43-.33-.62-.52-3.04-3.03-6.06-6.09-9.12-9.1-1.15-1.13-1.69-2.45-1.68-4.06.02-4.25,0-8.49,0-12.74,0-.29,0-.58,0-.93ZM6133.55-2387.73c3.84-4.28,4.74-11.07,2.13-16.41-2.53-5.19-6.77-8.05-12.5-8.9-.03.24-.05.38-.05.52,0,4.51-.02,9.03.03,13.54,0,.51.34,1.13.71,1.51,2.19,2.26,4.43,4.47,6.66,6.69,1,1,1.99,2,3.03,3.05Z"></path><path class="cls-12" d="M6154.05-2393.83c1.46,0,2.93,0,4.39,0,1.08,0,1.76.6,1.78,1.52.02.94-.7,1.59-1.79,1.59-2.97,0-5.95,0-8.92,0-1.07,0-1.75-.6-1.76-1.53-.02-.98.64-1.57,1.78-1.58,1.51-.01,3.02,0,4.53,0Z"></path><path class="cls-12" d="M6154.02-2383.48c1.46,0,2.93,0,4.39,0,1.12,0,1.82.62,1.81,1.56,0,.93-.73,1.55-1.83,1.55-2.93,0-5.85,0-8.78,0-1.18,0-1.87-.59-1.87-1.57,0-.99.67-1.53,1.89-1.54,1.46,0,2.93,0,4.39,0Z"></path><path class="cls-12" d="M6153.93-2401.06c-1.46,0-2.93,0-4.39,0-1.12,0-1.8-.61-1.8-1.57,0-.97.66-1.54,1.81-1.54,2.95,0,5.9,0,8.85,0,1.12,0,1.82.62,1.81,1.56,0,.93-.73,1.55-1.83,1.55-1.49,0-2.97,0-4.46,0Z"></path><path class="cls-12" d="M6154-2414.52c1.49,0,2.97,0,4.46,0,1.07,0,1.76.61,1.76,1.53,0,.94-.71,1.57-1.81,1.57-2.97,0-5.95,0-8.92,0-1.06,0-1.74-.62-1.75-1.55,0-.95.64-1.55,1.72-1.56,1.51-.01,3.02,0,4.53,0Z"></path></g><g><g class="cls-5"><rect class="cls-12" x="5958.83" y="-2413.51" width="104.55" height="42.88" rx="-1163.87" ry="-1163.87"></rect></g><text class="cls-6" transform="translate(5975.65 -2382.52)"><tspan x="0" y="0">Paso 2</tspan></text></g></g><g><rect class="cls-10" x="6028.71" y="-1359.26" width="559.12" height="315.3" rx="-364.33" ry="-364.33"></rect><g><rect class="cls-13" x="6527.37" y="-1316.23" width="90.47" height="45.32" rx="-612.79" ry="-612.79"></rect><text class="cls-8" transform="translate(6556.91 -1296.68)"><tspan x="0" y="0">TEST</tspan><tspan x="-20.7" y="15.41">SIN COSTO</tspan></text></g><text class="cls-15" transform="translate(6192 -1280.76)"><tspan class="cls-4" x="0" y="0">Evaluación </tspan><tspan class="cls-14" x="147.11" y="0">diagnóstica</tspan></text><g><path class="cls-12" d="M6120.01-1334.76c1.59.35,3.23.56,4.77,1.06,9.13,2.97,14.95,12.22,13.73,21.7-1.17,9.12-7.98,16.16-17.05,17.65-10.84,1.77-21.45-5.92-23.14-16.78-.09-.55-.19-1.1-.28-1.65,0-1.12,0-2.25,0-3.37.05-.19.11-.37.13-.56.85-8.01,6.68-15,14.41-17.19,1.33-.38,2.71-.58,4.06-.86,1.12,0,2.25,0,3.37,0ZM6101.16-1314.06c.32,9.72,8.21,17.1,17.95,16.8,9.34-.29,16.74-8.36,16.43-17.93-.29-9.18-8.39-16.77-17.57-16.44-9.59.34-17.12,8.22-16.81,17.58Z"></path><path class="cls-12" d="M6139.33-1272.23c-.71,0-1.42.02-2.12,0-.92-.04-1.63-.55-1.62-1.37,0-2.44-.05-4.89.22-7.3.25-2.29,1.52-4.17,3.16-5.81,6.29-6.27,12.57-12.56,18.86-18.85.67-.67,1.33-1.36,2.03-2.01,3.04-2.85,7.96-2.8,10.89.08,2.97,2.93,3.11,7.66.28,10.79-.97,1.07-2.01,2.06-3.03,3.08-5.42,5.42-10.91,10.78-16.24,16.29-3.44,3.56-7.45,5.41-12.41,5.11ZM6138.66-1275.45c3.9.37,7.25-.51,10.01-3.29,6.51-6.54,13.05-13.06,19.57-19.58.22-.22.45-.45.65-.7.78-.98,1.14-2.1,1.01-3.35-.21-1.92-1.21-3.3-3.04-3.94-1.89-.65-3.62-.27-5.05,1.17-6.91,6.9-13.82,13.8-20.7,20.73-.71.71-1.29,1.6-1.74,2.5-1.02,2.03-.63,4.24-.7,6.45Z"></path><path class="cls-12" d="M6135.51-1259.74c-4.61,0-9.23.01-13.84,0-7.05-.02-12.71-4.71-14.04-11.63-.12-.64-.2-1.31-.21-1.96-.02-4.79-.02-9.57-.01-14.36,0-1.29,1.04-2.07,2.13-1.62.72.3.98.88.98,1.64-.01,2.17,0,4.35,0,6.52,0,2.32,0,4.64,0,6.96.01,6.56,4.75,11.32,11.31,11.34,7.23.02,14.45,0,21.68,0,2.32,0,4.65.1,6.95-.09,5.83-.47,10.02-5.09,10.09-10.95.02-1.46,0-2.93,0-4.39,0-1.07.62-1.76,1.53-1.78.94-.01,1.61.71,1.57,1.81-.07,2.41.07,4.86-.33,7.22-1.06,6.34-6.88,11.15-13.33,11.28-.12,0-.24,0-.37,0-4.71,0-9.42,0-14.14,0Z"></path><path class="cls-12" d="M6148.81-1316c2.55-.13,5.18.38,7.59,1.78.42.24.78.73.95,1.19.22.59-.06,1.15-.59,1.53-.55.39-1.13.39-1.72.07-1.29-.72-2.66-1.23-4.14-1.34-1.19-.09-2.39-.08-3.58-.11-.29,0-.59,0-.88-.01-.9-.06-1.53-.71-1.51-1.56.01-.84.66-1.5,1.55-1.54.71-.03,1.42,0,2.34,0Z"></path><path class="cls-12" d="M6116.25-1306.63c-1.58-.04-2.97-.56-4.11-1.66-1.4-1.36-2.79-2.74-4.16-4.12-.72-.72-.76-1.62-.14-2.28.63-.66,1.6-.65,2.34.07,1.29,1.26,2.57,2.54,3.86,3.8,1.44,1.41,2.92,1.42,4.36.03,2.65-2.56,5.29-5.13,7.96-7.68.29-.27.66-.52,1.03-.63.65-.19,1.21.06,1.59.63.38.56.38,1.15,0,1.72-.13.2-.31.37-.49.54-2.7,2.61-5.41,5.22-8.1,7.84-1.16,1.13-2.54,1.69-4.14,1.74Z"></path></g><g><rect class="cls-13" x="5958.83" y="-1315.54" width="104.55" height="42.88" rx="-614.89" ry="-614.89"></rect><text class="cls-9" transform="translate(5975.17 -1284.55)"><tspan x="0" y="0">Paso 1</tspan></text></g></g><text class="cls-17" transform="translate(6096.15 -1817.87)"><tspan class="cls-1"><tspan x="0" y="0">Desarrollamos un plan de sensibilización y</tspan></tspan><tspan class="cls-1"><tspan x="0" y="23.1">capacitación, culminando con una evaluación </tspan></tspan><tspan class="cls-1"><tspan x="0" y="46.19">del desempeño de la estrategia, lo que te </tspan></tspan><tspan class="cls-2"><tspan x="0" y="69.29">permitirá implementar un proceso de </tspan></tspan><tspan class="cls-2"><tspan x="0" y="92.38">aprendizaje en menor tiempo invertido, de</tspan></tspan><tspan class="cls-2"><tspan x="0" y="115.48">manera inmersivo, gamificado, escalable y </tspan></tspan><tspan class="cls-2"><tspan x="0" y="138.58">seguro, directamente en el entorno laboral.</tspan></tspan></text><use transform="translate(1509.31)" xlink:href="#image"></use><use transform="translate(1509.31 3342.64)" xlink:href="#image"></use><use transform="translate(1499 3063.4) rotate(-180)" xlink:href="#image"></use></svg>