<svg xmlns="http://www.w3.org/2000/svg" xmlns:xlink="http://www.w3.org/1999/xlink" id="paso_1" data-name="paso 1" viewBox="0 0 731.12 412.04"><defs><style>      .cls-1 {        font-size: 12.84px;      }      .cls-1, .cls-2, .cls-3 {        font-family: Montserrat-Black, Montserrat;        font-weight: 800;      }      .cls-1, .cls-3, .cls-4 {        fill: #fff;      }      .cls-5 {        font-size: 25.43px;      }      .cls-6, .cls-7, .cls-4 {        stroke-width: 0px;      }      .cls-6, .cls-8 {        fill: #4f4f4f;      }      .cls-7, .cls-2 {        fill: #35d32d;      }      .cls-8 {        font-family: Montserrat-Bold, Montserrat;        font-weight: 700;      }      .cls-3 {        font-size: 21.49px;      }      .cls-4 {        filter: url(#drop-shadow-1);      }    </style><filter id="drop-shadow-1" filterUnits="userSpaceOnUse"><feGaussianBlur stdDeviation="14.17"></feGaussianBlur></filter></defs><g><rect class="cls-4" x="97.84" y="45.35" width="559.12" height="315.3" rx="35.65" ry="35.65"></rect><g><rect class="cls-7" x="596.49" y="88.38" width="90.47" height="45.32" rx="11.61" ry="11.61"></rect><text class="cls-1" transform="translate(626.03 107.93)"><tspan x="0" y="0">TEST</tspan><tspan x="-20.7" y="15.41">SIN COSTO</tspan></text></g><text class="cls-5" transform="translate(261.13 123.85)"><tspan class="cls-8" x="0" y="0">Evaluación </tspan><tspan class="cls-2" x="147.11" y="0">diagnóstica</tspan></text><g><path class="cls-6" d="M189.14,69.85c1.59.35,3.23.56,4.77,1.06,9.13,2.97,14.95,12.22,13.73,21.7-1.17,9.12-7.98,16.16-17.05,17.65-10.84,1.77-21.45-5.92-23.14-16.78-.09-.55-.19-1.1-.28-1.65,0-1.12,0-2.25,0-3.37.05-.19.11-.37.13-.56.85-8.01,6.68-15,14.41-17.19,1.33-.38,2.71-.58,4.06-.86,1.12,0,2.25,0,3.37,0ZM170.28,90.55c.32,9.72,8.21,17.1,17.95,16.8,9.34-.29,16.74-8.36,16.43-17.93-.29-9.18-8.39-16.77-17.57-16.44-9.59.34-17.12,8.22-16.81,17.58Z"></path><path class="cls-6" d="M208.46,132.38c-.71,0-1.42.02-2.12,0-.92-.04-1.63-.55-1.62-1.37,0-2.44-.05-4.89.22-7.3.25-2.29,1.52-4.17,3.16-5.81,6.29-6.27,12.57-12.56,18.86-18.85.67-.67,1.33-1.36,2.03-2.01,3.04-2.85,7.96-2.8,10.89.08,2.97,2.93,3.11,7.66.28,10.79-.97,1.07-2.01,2.06-3.03,3.08-5.42,5.42-10.91,10.78-16.24,16.29-3.44,3.56-7.45,5.41-12.41,5.11ZM207.79,129.16c3.9.37,7.25-.51,10.01-3.29,6.51-6.54,13.05-13.06,19.57-19.58.22-.22.45-.45.65-.7.78-.98,1.14-2.1,1.01-3.35-.21-1.92-1.21-3.3-3.04-3.94-1.89-.65-3.62-.27-5.05,1.17-6.91,6.9-13.82,13.8-20.7,20.73-.71.71-1.29,1.6-1.74,2.5-1.02,2.03-.63,4.24-.7,6.45Z"></path><path class="cls-6" d="M204.64,144.87c-4.61,0-9.23.01-13.84,0-7.05-.02-12.71-4.71-14.04-11.63-.12-.64-.2-1.31-.21-1.96-.02-4.79-.02-9.57-.01-14.36,0-1.29,1.04-2.07,2.13-1.62.72.3.98.88.98,1.64-.01,2.17,0,4.35,0,6.52,0,2.32,0,4.64,0,6.96.01,6.56,4.75,11.32,11.31,11.34,7.23.02,14.45,0,21.68,0,2.32,0,4.65.1,6.95-.09,5.83-.47,10.02-5.09,10.09-10.95.02-1.46,0-2.93,0-4.39,0-1.07.62-1.76,1.53-1.78.94-.01,1.61.71,1.57,1.81-.07,2.41.07,4.86-.33,7.22-1.06,6.34-6.88,11.15-13.33,11.28-.12,0-.24,0-.37,0-4.71,0-9.42,0-14.14,0Z"></path><path class="cls-6" d="M217.93,88.61c2.55-.13,5.18.38,7.59,1.78.42.24.78.73.95,1.19.22.59-.06,1.15-.59,1.53-.55.39-1.13.39-1.72.07-1.29-.72-2.66-1.23-4.14-1.34-1.19-.09-2.39-.08-3.58-.11-.29,0-.59,0-.88-.01-.9-.06-1.53-.71-1.51-1.56.01-.84.66-1.5,1.55-1.54.71-.03,1.42,0,2.34,0Z"></path><path class="cls-6" d="M185.38,97.98c-1.58-.04-2.97-.56-4.11-1.66-1.4-1.36-2.79-2.74-4.16-4.12-.72-.72-.76-1.62-.14-2.28.63-.66,1.6-.65,2.34.07,1.29,1.26,2.57,2.54,3.86,3.8,1.44,1.41,2.92,1.42,4.36.03,2.65-2.56,5.29-5.13,7.96-7.68.29-.27.66-.52,1.03-.63.65-.19,1.21.06,1.59.63.38.56.38,1.15,0,1.72-.13.2-.31.37-.49.54-2.7,2.61-5.41,5.22-8.1,7.84-1.16,1.13-2.54,1.69-4.14,1.74Z"></path></g><g><rect class="cls-7" x="27.95" y="89.07" width="104.55" height="42.88" rx="11.61" ry="11.61"></rect><text class="cls-3" transform="translate(44.3 120.06)"><tspan x="0" y="0">Paso 1</tspan></text></g></g><g><path class="cls-6" d="M177.84,199.62c-1.99,0-3.54-.54-4.66-1.64s-1.67-2.64-1.67-4.64v-7.47h3.81v7.35c0,1.15.23,1.98.68,2.48.46.5,1.08.75,1.88.75s1.42-.25,1.87-.75c.45-.5.67-1.33.67-2.48v-7.35h3.75v7.47c0,2-.56,3.55-1.67,4.64-1.12,1.09-2.67,1.64-4.66,1.64Z"></path><path class="cls-6" d="M185.48,192.04v-2.73h7.56v2.73h-7.56ZM191.23,199.52c-1.33,0-2.37-.33-3.12-.99-.74-.66-1.12-1.66-1.12-2.99v-8.95h3.66v8.91c0,.37.1.66.31.88s.47.32.79.32c.44,0,.81-.11,1.12-.33l.9,2.56c-.31.21-.69.36-1.14.45-.45.1-.92.14-1.41.14Z"></path><path class="cls-6" d="M197.01,187.76c-.67,0-1.21-.19-1.62-.56-.41-.37-.62-.83-.62-1.39s.21-1.01.62-1.39c.41-.37.95-.56,1.62-.56s1.21.18,1.62.53c.41.35.62.81.62,1.36s-.2,1.06-.61,1.43c-.4.38-.95.57-1.63.57ZM195.18,199.35v-10.43h3.66v10.43h-3.66Z"></path><path class="cls-6" d="M201.2,199.35v-14.28h3.66v14.28h-3.66Z"></path><path class="cls-6" d="M209.05,187.76c-.67,0-1.21-.19-1.62-.56-.41-.37-.62-.83-.62-1.39s.21-1.01.62-1.39c.41-.37.95-.56,1.62-.56s1.21.18,1.62.53c.41.35.62.81.62,1.36s-.2,1.06-.61,1.43c-.4.38-.95.57-1.63.57ZM207.23,199.35v-10.43h3.66v10.43h-3.66Z"></path><path class="cls-6" d="M212.71,199.35v-2.16l5.85-6.74.62,1.17h-6.33v-2.71h9.3v2.14l-5.87,6.75-.62-1.19h6.68v2.73h-9.62Z"></path><path class="cls-6" d="M227.24,199.52c-.83,0-1.54-.14-2.12-.42s-1.02-.67-1.32-1.16c-.3-.49-.45-1.03-.45-1.64,0-.64.16-1.2.49-1.67.33-.47.83-.83,1.51-1.08.68-.25,1.56-.38,2.64-.38h2.46v1.91h-1.96c-.59,0-1,.1-1.24.29-.24.19-.36.45-.36.77s.12.58.37.77.58.29,1,.29c.4,0,.76-.1,1.09-.3s.57-.5.72-.91l.5,1.35c-.19.72-.57,1.26-1.13,1.63-.56.37-1.29.55-2.2.55ZM230.32,199.35v-1.94l-.25-.48v-3.58c0-.58-.18-1.02-.53-1.34-.35-.31-.91-.47-1.68-.47-.5,0-1.01.08-1.52.24s-.95.38-1.31.66l-1.23-2.48c.59-.38,1.3-.68,2.13-.89.83-.21,1.65-.32,2.47-.32,1.69,0,3.01.39,3.94,1.16.93.78,1.4,1.99,1.4,3.65v5.79h-3.41Z"></path><path class="cls-6" d="M249.63,188.75c.81,0,1.53.16,2.17.49.63.33,1.14.83,1.5,1.51.37.68.55,1.56.55,2.64v5.97h-3.66v-5.37c0-.74-.14-1.29-.42-1.63-.28-.34-.67-.51-1.16-.51-.35,0-.66.08-.94.25-.28.17-.5.42-.65.76-.15.34-.23.78-.23,1.32v5.18h-3.66v-5.37c0-.74-.14-1.29-.41-1.63s-.66-.51-1.16-.51c-.36,0-.68.08-.95.25s-.49.42-.65.76c-.16.34-.24.78-.24,1.32v5.18h-3.66v-10.43h3.48v2.91l-.69-.83c.39-.74.91-1.3,1.58-1.68.67-.38,1.41-.57,2.23-.57.94,0,1.76.24,2.47.72.71.48,1.19,1.23,1.43,2.24l-1.19-.25c.37-.85.93-1.51,1.68-1.99.75-.48,1.61-.72,2.59-.72Z"></path><path class="cls-6" d="M261.52,199.52c-1.14,0-2.16-.23-3.04-.69-.88-.46-1.58-1.1-2.09-1.92s-.76-1.75-.76-2.8.25-1.98.76-2.79c.51-.81,1.2-1.44,2.09-1.9.89-.46,1.9-.68,3.04-.68s2.16.23,3.05.68c.89.46,1.59,1.09,2.09,1.9.5.81.75,1.74.75,2.79s-.25,1.99-.75,2.8-1.2,1.45-2.09,1.92-1.91.69-3.05.69ZM261.52,196.62c.42,0,.8-.1,1.13-.29s.59-.48.78-.86c.19-.38.29-.83.29-1.36s-.1-.97-.29-1.34c-.19-.37-.45-.65-.78-.84s-.7-.29-1.13-.29-.78.1-1.11.29-.59.47-.79.84c-.2.37-.3.81-.3,1.34s.1.98.3,1.36c.2.38.46.66.79.86s.7.29,1.11.29Z"></path><path class="cls-6" d="M272.89,199.52c-.89,0-1.75-.1-2.59-.31-.84-.21-1.52-.46-2.03-.77l1.1-2.5c.49.29,1.06.53,1.71.7s1.3.26,1.92.26,1.04-.06,1.28-.19c.24-.13.36-.3.36-.52,0-.21-.11-.36-.34-.45-.23-.1-.52-.17-.89-.22-.37-.05-.77-.11-1.2-.17-.44-.06-.88-.15-1.32-.26-.44-.11-.85-.28-1.21-.5-.37-.22-.66-.53-.88-.91s-.33-.87-.33-1.46c0-.67.2-1.26.59-1.78.39-.52.96-.93,1.72-1.23s1.68-.45,2.77-.45c.73,0,1.47.07,2.22.22.75.15,1.38.37,1.9.66l-1.1,2.48c-.51-.3-1.03-.5-1.54-.61s-1-.16-1.46-.16c-.62,0-1.05.07-1.3.21-.25.14-.38.31-.38.52s.11.36.33.47c.22.11.51.19.88.25s.77.12,1.2.17c.44.06.88.14,1.32.26.44.12.85.29,1.21.51s.66.53.88.9c.22.38.33.86.33,1.45,0,.64-.2,1.22-.59,1.73-.39.51-.97.92-1.73,1.23-.76.31-1.71.46-2.84.46Z"></path><path class="cls-6" d="M285.23,199.35v-10.43h3.48v3.04l-.52-.87c.31-.78.81-1.37,1.5-1.76.69-.39,1.53-.59,2.52-.59v3.29c-.17-.03-.31-.04-.43-.05-.12,0-.25,0-.39,0-.74,0-1.35.2-1.81.61-.46.4-.69,1.06-.69,1.97v4.79h-3.66Z"></path><path class="cls-6" d="M299.09,199.52c-1.23,0-2.31-.23-3.22-.7-.92-.47-1.63-1.11-2.14-1.92-.51-.81-.76-1.74-.76-2.78s.25-1.97.74-2.78c.49-.81,1.18-1.45,2.05-1.91.87-.46,1.85-.68,2.94-.68,1.03,0,1.96.21,2.81.62s1.52,1.03,2.02,1.84c.5.81.75,1.79.75,2.95,0,.13,0,.28-.02.44s-.03.32-.04.46h-8.26v-1.92h6.31l-1.39.54c.01-.47-.07-.89-.26-1.23-.19-.35-.44-.62-.77-.81s-.71-.29-1.15-.29-.82.1-1.15.29-.58.46-.76.82c-.18.35-.27.77-.27,1.24v.56c0,.51.11.96.32,1.33.21.37.52.66.91.86.4.2.87.3,1.42.3.51,0,.95-.07,1.32-.22s.73-.38,1.09-.68l1.92,2c-.5.55-1.12.97-1.85,1.26-.73.29-1.6.43-2.6.43Z"></path><path class="cls-6" d="M308.98,199.52c-.83,0-1.54-.14-2.12-.42s-1.02-.67-1.32-1.16c-.3-.49-.45-1.03-.45-1.64,0-.64.16-1.2.49-1.67.33-.47.83-.83,1.51-1.08.68-.25,1.56-.38,2.64-.38h2.46v1.91h-1.96c-.59,0-1,.1-1.24.29-.24.19-.36.45-.36.77s.12.58.37.77.58.29,1,.29c.4,0,.76-.1,1.09-.3s.57-.5.72-.91l.5,1.35c-.19.72-.57,1.26-1.13,1.63-.56.37-1.29.55-2.2.55ZM312.06,199.35v-1.94l-.25-.48v-3.58c0-.58-.18-1.02-.53-1.34-.35-.31-.91-.47-1.68-.47-.5,0-1.01.08-1.52.24s-.95.38-1.31.66l-1.23-2.48c.59-.38,1.3-.68,2.13-.89.83-.21,1.65-.32,2.47-.32,1.69,0,3.01.39,3.94,1.16.93.78,1.4,1.99,1.4,3.65v5.79h-3.41Z"></path><path class="cls-6" d="M317.78,199.35v-14.28h3.66v14.28h-3.66Z"></path><path class="cls-6" d="M325.63,187.76c-.67,0-1.21-.19-1.62-.56-.41-.37-.62-.83-.62-1.39s.21-1.01.62-1.39c.41-.37.95-.56,1.62-.56s1.21.18,1.62.53c.41.35.62.81.62,1.36s-.2,1.06-.61,1.43c-.4.38-.95.57-1.63.57ZM323.8,199.35v-10.43h3.66v10.43h-3.66Z"></path><path class="cls-6" d="M334.37,199.52c-.95,0-1.81-.22-2.59-.66-.78-.44-1.4-1.06-1.86-1.87s-.69-1.76-.69-2.88.23-2.06.69-2.86,1.08-1.42,1.86-1.86,1.64-.65,2.59-.65c.9,0,1.66.19,2.28.58.62.38,1.09.98,1.41,1.77.32.8.48,1.8.48,3.02s-.15,2.26-.46,3.06c-.31.8-.77,1.39-1.39,1.77-.62.38-1.39.58-2.33.58ZM335.14,196.62c.41,0,.78-.1,1.11-.29s.59-.48.78-.86c.19-.38.29-.83.29-1.36s-.1-.97-.29-1.34c-.19-.37-.45-.65-.78-.84s-.7-.29-1.11-.29-.8.1-1.13.29c-.33.19-.59.47-.78.84-.19.37-.29.81-.29,1.34s.1.98.29,1.36c.19.38.45.66.78.86.33.19.7.29,1.13.29ZM337.43,199.35v-1.79l.02-3.45-.19-3.45v-5.6h3.66v14.28h-3.48Z"></path><path class="cls-6" d="M346.55,199.52c-.83,0-1.54-.14-2.12-.42s-1.02-.67-1.32-1.16c-.3-.49-.45-1.03-.45-1.64,0-.64.16-1.2.49-1.67.33-.47.83-.83,1.51-1.08.68-.25,1.56-.38,2.64-.38h2.46v1.91h-1.96c-.59,0-1,.1-1.24.29s-.36.45-.36.77.12.58.37.77c.24.19.58.29,1,.29.4,0,.76-.1,1.09-.3s.57-.5.72-.91l.5,1.35c-.19.72-.57,1.26-1.13,1.63-.56.37-1.29.55-2.2.55ZM349.63,199.35v-1.94l-.25-.48v-3.58c0-.58-.18-1.02-.53-1.34s-.91-.47-1.68-.47c-.5,0-1.01.08-1.52.24s-.95.38-1.31.66l-1.23-2.48c.59-.38,1.3-.68,2.13-.89.83-.21,1.65-.32,2.47-.32,1.69,0,3.01.39,3.94,1.16.93.78,1.4,1.99,1.4,3.65v5.79h-3.41Z"></path><path class="cls-6" d="M360.02,199.52c-.95,0-1.81-.22-2.59-.66-.78-.44-1.4-1.06-1.86-1.87s-.69-1.76-.69-2.88.23-2.06.69-2.86,1.08-1.42,1.86-1.86,1.64-.65,2.59-.65c.9,0,1.66.19,2.28.58.62.38,1.09.98,1.41,1.77.32.8.48,1.8.48,3.02s-.15,2.26-.46,3.06c-.31.8-.77,1.39-1.39,1.77-.62.38-1.39.58-2.33.58ZM360.79,196.62c.41,0,.78-.1,1.11-.29s.59-.48.78-.86c.19-.38.29-.83.29-1.36s-.1-.97-.29-1.34c-.19-.37-.45-.65-.78-.84s-.7-.29-1.11-.29-.8.1-1.13.29c-.33.19-.59.47-.78.84-.19.37-.29.81-.29,1.34s.1.98.29,1.36c.19.38.45.66.78.86.33.19.7.29,1.13.29ZM363.08,199.35v-1.79l.02-3.45-.19-3.45v-5.6h3.66v14.28h-3.48Z"></path><path class="cls-6" d="M377.42,199.35l-4.29-10.43h3.75l3.43,8.72h-1.89l3.6-8.72h3.48l-4.31,10.43h-3.77Z"></path><path class="cls-6" d="M388.28,187.76c-.67,0-1.21-.19-1.62-.56-.41-.37-.62-.83-.62-1.39s.21-1.01.62-1.39c.41-.37.95-.56,1.62-.56s1.21.18,1.62.53c.41.35.62.81.62,1.36s-.2,1.06-.61,1.43c-.4.38-.95.57-1.63.57ZM386.45,199.35v-10.43h3.66v10.43h-3.66Z"></path><path class="cls-6" d="M392.47,199.35v-10.43h3.48v3.04l-.52-.87c.31-.78.81-1.37,1.5-1.76s1.53-.59,2.52-.59v3.29c-.17-.03-.31-.04-.43-.05-.12,0-.25,0-.39,0-.74,0-1.35.2-1.81.61-.46.4-.69,1.06-.69,1.97v4.79h-3.66Z"></path><path class="cls-6" d="M400.19,192.04v-2.73h7.56v2.73h-7.56ZM405.94,199.52c-1.33,0-2.37-.33-3.12-.99-.74-.66-1.12-1.66-1.12-2.99v-8.95h3.66v8.91c0,.37.1.66.31.88s.47.32.79.32c.44,0,.81-.11,1.12-.33l.9,2.56c-.31.21-.69.36-1.14.45-.45.1-.92.14-1.4.14Z"></path><path class="cls-6" d="M414.28,199.52c-.85,0-1.61-.17-2.28-.5-.67-.33-1.2-.86-1.58-1.57-.38-.71-.57-1.61-.57-2.7v-5.83h3.66v5.24c0,.81.15,1.39.45,1.73.3.35.73.52,1.28.52.36,0,.69-.08.98-.25.29-.17.53-.43.71-.8.18-.37.27-.84.27-1.41v-5.02h3.66v10.43h-3.48v-2.94l.67.83c-.36.77-.88,1.34-1.56,1.72-.68.38-1.42.57-2.21.57Z"></path><path class="cls-6" d="M426.5,199.52c-.83,0-1.54-.14-2.12-.42s-1.02-.67-1.32-1.16c-.3-.49-.45-1.03-.45-1.64,0-.64.16-1.2.49-1.67.33-.47.83-.83,1.51-1.08.68-.25,1.56-.38,2.64-.38h2.46v1.91h-1.96c-.59,0-1,.1-1.24.29-.24.19-.36.45-.36.77s.12.58.37.77c.24.19.58.29,1,.29.4,0,.76-.1,1.09-.3s.57-.5.72-.91l.5,1.35c-.19.72-.57,1.26-1.13,1.63-.56.37-1.29.55-2.2.55ZM429.58,199.35v-1.94l-.25-.48v-3.58c0-.58-.18-1.02-.53-1.34s-.91-.47-1.68-.47c-.5,0-1.01.08-1.52.24-.51.16-.95.38-1.31.66l-1.23-2.48c.59-.38,1.3-.68,2.13-.89.83-.21,1.65-.32,2.47-.32,1.69,0,3.01.39,3.94,1.16.93.78,1.4,1.99,1.4,3.65v5.79h-3.41Z"></path><path class="cls-6" d="M435.29,199.35v-14.28h3.66v14.28h-3.66Z"></path><path class="cls-6" d="M446.92,203.08v-14.17h3.48v1.77l-.02,3.45.19,3.46v5.48h-3.66ZM453.48,199.52c-.88,0-1.64-.2-2.27-.59-.63-.39-1.11-.98-1.43-1.77s-.49-1.8-.49-3.03.15-2.26.46-3.05.77-1.38,1.4-1.76c.62-.38,1.4-.58,2.34-.58s1.81.22,2.59.66c.78.44,1.39,1.06,1.85,1.87.46.8.68,1.75.68,2.86s-.23,2.06-.68,2.87c-.46.81-1.07,1.43-1.85,1.87-.78.44-1.64.65-2.59.65ZM452.71,196.62c.41,0,.78-.1,1.11-.29.33-.19.59-.47.79-.85.2-.37.3-.82.3-1.35s-.1-.97-.3-1.35c-.2-.37-.46-.65-.79-.85-.33-.19-.7-.29-1.11-.29s-.78.1-1.11.29-.59.47-.79.85c-.2.37-.3.82-.3,1.35s.1.98.3,1.35c.2.37.46.65.79.85s.7.29,1.11.29Z"></path><path class="cls-6" d="M463.36,199.52c-.83,0-1.54-.14-2.12-.42s-1.02-.67-1.32-1.16c-.3-.49-.45-1.03-.45-1.64,0-.64.16-1.2.49-1.67.33-.47.83-.83,1.51-1.08.68-.25,1.56-.38,2.64-.38h2.46v1.91h-1.96c-.59,0-1,.1-1.24.29s-.36.45-.36.77.12.58.37.77c.24.19.58.29,1,.29.4,0,.76-.1,1.09-.3s.57-.5.72-.91l.5,1.35c-.19.72-.57,1.26-1.12,1.63-.56.37-1.29.55-2.2.55ZM466.43,199.35v-1.94l-.25-.48v-3.58c0-.58-.18-1.02-.53-1.34-.35-.31-.91-.47-1.68-.47-.5,0-1.01.08-1.52.24-.51.16-.95.38-1.31.66l-1.23-2.48c.59-.38,1.3-.68,2.13-.89s1.65-.32,2.47-.32c1.69,0,3,.39,3.94,1.16.93.78,1.4,1.99,1.4,3.65v5.79h-3.41Z"></path><path class="cls-6" d="M472.15,199.35v-10.43h3.48v3.04l-.52-.87c.31-.78.81-1.37,1.5-1.76s1.53-.59,2.52-.59v3.29c-.17-.03-.31-.04-.43-.05-.12,0-.25,0-.39,0-.74,0-1.35.2-1.81.61-.46.4-.69,1.06-.69,1.97v4.79h-3.66Z"></path><path class="cls-6" d="M483.29,199.52c-.83,0-1.54-.14-2.12-.42s-1.02-.67-1.32-1.16c-.3-.49-.45-1.03-.45-1.64,0-.64.16-1.2.49-1.67.33-.47.83-.83,1.51-1.08.68-.25,1.56-.38,2.64-.38h2.46v1.91h-1.96c-.59,0-1,.1-1.24.29s-.36.45-.36.77.12.58.37.77c.24.19.58.29,1,.29.4,0,.76-.1,1.09-.3s.57-.5.72-.91l.5,1.35c-.19.72-.57,1.26-1.12,1.63-.56.37-1.29.55-2.2.55ZM486.37,199.35v-1.94l-.25-.48v-3.58c0-.58-.18-1.02-.53-1.34-.35-.31-.91-.47-1.68-.47-.5,0-1.01.08-1.52.24-.51.16-.95.38-1.31.66l-1.23-2.48c.59-.38,1.3-.68,2.13-.89s1.65-.32,2.47-.32c1.69,0,3,.39,3.94,1.16.93.78,1.4,1.99,1.4,3.65v5.79h-3.41Z"></path><path class="cls-6" d="M497.69,199.35v-10.43h3.48v3.04l-.52-.87c.31-.78.81-1.37,1.5-1.76.69-.39,1.53-.59,2.52-.59v3.29c-.17-.03-.31-.04-.43-.05-.12,0-.25,0-.39,0-.74,0-1.35.2-1.81.61-.46.4-.69,1.06-.69,1.97v4.79h-3.66Z"></path><path class="cls-6" d="M511.55,199.52c-1.23,0-2.31-.23-3.22-.7-.92-.47-1.63-1.11-2.14-1.92-.51-.81-.76-1.74-.76-2.78s.25-1.97.74-2.78c.49-.81,1.18-1.45,2.05-1.91.87-.46,1.85-.68,2.94-.68,1.03,0,1.96.21,2.81.62s1.52,1.03,2.02,1.84c.5.81.75,1.79.75,2.95,0,.13,0,.28-.02.44s-.03.32-.04.46h-8.26v-1.92h6.31l-1.39.54c.01-.47-.07-.89-.26-1.23-.19-.35-.44-.62-.77-.81s-.71-.29-1.15-.29-.82.1-1.14.29c-.33.19-.58.46-.76.82-.18.35-.27.77-.27,1.24v.56c0,.51.11.96.32,1.33.21.37.52.66.91.86.4.2.87.3,1.42.3.51,0,.95-.07,1.32-.22s.73-.38,1.09-.68l1.93,2c-.5.55-1.12.97-1.85,1.26s-1.6.43-2.6.43Z"></path><path class="cls-6" d="M521.44,199.52c-.83,0-1.54-.14-2.12-.42s-1.02-.67-1.32-1.16c-.3-.49-.45-1.03-.45-1.64,0-.64.16-1.2.49-1.67.33-.47.83-.83,1.51-1.08.68-.25,1.56-.38,2.64-.38h2.46v1.91h-1.96c-.59,0-1,.1-1.24.29s-.36.45-.36.77.12.58.37.77c.24.19.58.29,1,.29.4,0,.76-.1,1.09-.3s.57-.5.72-.91l.5,1.35c-.19.72-.57,1.26-1.12,1.63-.56.37-1.29.55-2.2.55ZM524.52,199.35v-1.94l-.25-.48v-3.58c0-.58-.18-1.02-.53-1.34-.35-.31-.91-.47-1.68-.47-.5,0-1.01.08-1.52.24-.51.16-.95.38-1.31.66l-1.23-2.48c.59-.38,1.3-.68,2.13-.89s1.65-.32,2.47-.32c1.69,0,3,.39,3.94,1.16.93.78,1.4,1.99,1.4,3.65v5.79h-3.41Z"></path><path class="cls-6" d="M530.24,199.35v-14.28h3.66v14.28h-3.66Z"></path><path class="cls-6" d="M538.09,187.76c-.67,0-1.21-.19-1.62-.56-.41-.37-.62-.83-.62-1.39s.21-1.01.62-1.39c.41-.37.95-.56,1.62-.56s1.21.18,1.62.53c.41.35.62.81.62,1.36s-.2,1.06-.61,1.43c-.4.38-.95.57-1.63.57ZM536.26,199.35v-10.43h3.66v10.43h-3.66Z"></path><path class="cls-6" d="M541.75,199.35v-2.16l5.85-6.74.62,1.17h-6.33v-2.71h9.3v2.14l-5.87,6.75-.62-1.19h6.68v2.73h-9.62Z"></path><path class="cls-6" d="M556.28,199.52c-.83,0-1.54-.14-2.12-.42s-1.02-.67-1.32-1.16c-.3-.49-.45-1.03-.45-1.64,0-.64.16-1.2.49-1.67.33-.47.83-.83,1.51-1.08.68-.25,1.56-.38,2.64-.38h2.46v1.91h-1.96c-.59,0-1,.1-1.24.29-.24.19-.36.45-.36.77s.12.58.37.77.58.29,1,.29c.4,0,.76-.1,1.09-.3s.57-.5.72-.91l.5,1.35c-.19.72-.57,1.26-1.13,1.63-.56.37-1.29.55-2.2.55ZM559.36,199.35v-1.94l-.25-.48v-3.58c0-.58-.18-1.02-.53-1.34-.35-.31-.91-.47-1.68-.47-.5,0-1.01.08-1.52.24-.51.16-.95.38-1.31.66l-1.23-2.48c.59-.38,1.3-.68,2.13-.89.83-.21,1.65-.32,2.47-.32,1.69,0,3.01.39,3.94,1.16.93.78,1.39,1.99,1.39,3.65v5.79h-3.41Z"></path><path class="cls-6" d="M565.07,199.35v-10.43h3.48v3.04l-.52-.87c.31-.78.81-1.37,1.5-1.76.69-.39,1.53-.59,2.52-.59v3.29c-.17-.03-.31-.04-.43-.05-.12,0-.25,0-.39,0-.74,0-1.35.2-1.81.61-.46.4-.69,1.06-.69,1.97v4.79h-3.66Z"></path><path class="cls-6" d="M175.83,222.62c-.85,0-1.61-.17-2.28-.5-.67-.33-1.2-.86-1.58-1.57-.38-.71-.57-1.61-.57-2.7v-5.83h3.66v5.24c0,.81.15,1.39.45,1.73.3.35.73.52,1.28.52.36,0,.69-.08.98-.25.29-.17.53-.43.71-.8.18-.37.27-.84.27-1.41v-5.02h3.66v10.43h-3.48v-2.94l.67.83c-.36.77-.88,1.34-1.56,1.72-.68.38-1.42.57-2.21.57Z"></path><path class="cls-6" d="M191.56,211.84c.81,0,1.54.16,2.19.49.65.33,1.17.83,1.55,1.51.38.68.57,1.56.57,2.64v5.97h-3.66v-5.37c0-.74-.15-1.29-.45-1.63-.3-.34-.72-.51-1.26-.51-.38,0-.74.09-1.06.26-.32.17-.57.44-.75.8s-.27.83-.27,1.4v5.04h-3.66v-10.43h3.48v2.96l-.67-.87c.4-.76.94-1.32,1.64-1.7.69-.38,1.48-.57,2.35-.57Z"></path><path class="cls-6" d="M201.45,222.62c-.83,0-1.54-.14-2.12-.42-.58-.28-1.02-.67-1.32-1.16-.3-.49-.45-1.03-.45-1.64,0-.64.16-1.2.49-1.67.33-.47.83-.83,1.51-1.08.68-.25,1.56-.38,2.64-.38h2.46v1.91h-1.96c-.59,0-1,.1-1.24.29s-.36.45-.36.77.12.58.37.77c.24.19.58.29,1,.29.4,0,.76-.1,1.09-.3s.57-.5.72-.91l.5,1.35c-.19.72-.57,1.26-1.13,1.63-.56.37-1.29.55-2.2.55ZM204.53,222.45v-1.94l-.25-.48v-3.58c0-.58-.18-1.02-.53-1.34-.35-.31-.91-.47-1.68-.47-.5,0-1.01.08-1.52.24-.51.16-.95.38-1.31.66l-1.23-2.48c.59-.38,1.3-.68,2.13-.89.83-.21,1.65-.32,2.47-.32,1.69,0,3,.39,3.94,1.16.93.78,1.4,1.99,1.4,3.65v5.79h-3.41Z"></path><path class="cls-6" d="M221.31,222.62c-1.23,0-2.31-.23-3.22-.7-.92-.47-1.63-1.11-2.14-1.92-.51-.81-.76-1.74-.76-2.78s.25-1.97.74-2.78c.49-.81,1.18-1.45,2.05-1.91.87-.46,1.85-.68,2.94-.68,1.03,0,1.96.21,2.81.62s1.52,1.03,2.02,1.84c.5.81.75,1.79.75,2.95,0,.13,0,.28-.02.44s-.03.32-.04.46h-8.26v-1.92h6.31l-1.39.54c.01-.47-.07-.89-.26-1.23-.19-.35-.44-.62-.77-.81s-.71-.29-1.15-.29-.82.1-1.15.29-.58.46-.76.82c-.18.35-.27.77-.27,1.24v.56c0,.51.11.96.32,1.33.21.37.52.66.91.86.4.2.87.3,1.42.3.51,0,.95-.07,1.32-.22s.73-.38,1.09-.68l1.92,2c-.5.55-1.12.97-1.85,1.26-.73.29-1.6.43-2.6.43Z"></path><path class="cls-6" d="M230.92,222.45l-4.29-10.43h3.75l3.43,8.72h-1.89l3.6-8.72h3.48l-4.31,10.43h-3.77Z"></path><path class="cls-6" d="M242.87,222.62c-.83,0-1.54-.14-2.12-.42s-1.02-.67-1.32-1.16c-.3-.49-.45-1.03-.45-1.64,0-.64.16-1.2.49-1.67.33-.47.83-.83,1.51-1.08.68-.25,1.56-.38,2.64-.38h2.46v1.91h-1.96c-.59,0-1,.1-1.24.29s-.36.45-.36.77.12.58.37.77c.24.19.58.29,1,.29.4,0,.76-.1,1.09-.3s.57-.5.72-.91l.5,1.35c-.19.72-.57,1.26-1.13,1.63-.56.37-1.29.55-2.2.55ZM245.95,222.45v-1.94l-.25-.48v-3.58c0-.58-.18-1.02-.53-1.34s-.91-.47-1.68-.47c-.5,0-1.01.08-1.52.24s-.95.38-1.31.66l-1.23-2.48c.59-.38,1.3-.68,2.13-.89.83-.21,1.65-.32,2.47-.32,1.69,0,3.01.39,3.94,1.16.93.78,1.4,1.99,1.4,3.65v5.79h-3.41Z"></path><path class="cls-6" d="M251.67,222.45v-14.28h3.66v14.28h-3.66Z"></path><path class="cls-6" d="M262.08,222.62c-.85,0-1.61-.17-2.28-.5-.67-.33-1.2-.86-1.58-1.57-.38-.71-.57-1.61-.57-2.7v-5.83h3.66v5.24c0,.81.15,1.39.45,1.73.3.35.73.52,1.28.52.36,0,.69-.08.98-.25.3-.17.53-.43.71-.8.18-.37.27-.84.27-1.41v-5.02h3.66v10.43h-3.48v-2.94l.67.83c-.36.77-.88,1.34-1.56,1.72-.68.38-1.42.57-2.21.57Z"></path><path class="cls-6" d="M274.3,222.62c-.83,0-1.54-.14-2.12-.42-.58-.28-1.02-.67-1.32-1.16-.3-.49-.45-1.03-.45-1.64,0-.64.16-1.2.49-1.67.33-.47.83-.83,1.51-1.08.68-.25,1.56-.38,2.64-.38h2.46v1.91h-1.96c-.59,0-1,.1-1.24.29-.24.19-.36.45-.36.77s.12.58.37.77c.24.19.58.29,1,.29.4,0,.76-.1,1.09-.3s.57-.5.72-.91l.5,1.35c-.19.72-.57,1.26-1.13,1.63-.56.37-1.29.55-2.2.55ZM277.38,222.45v-1.94l-.25-.48v-3.58c0-.58-.18-1.02-.53-1.34-.35-.31-.91-.47-1.68-.47-.5,0-1.01.08-1.52.24-.51.16-.95.38-1.31.66l-1.23-2.48c.59-.38,1.3-.68,2.13-.89s1.65-.32,2.47-.32c1.69,0,3.01.39,3.94,1.16s1.4,1.99,1.4,3.65v5.79h-3.41Z"></path><path class="cls-6" d="M288.56,222.62c-1.15,0-2.18-.23-3.09-.69s-1.61-1.1-2.13-1.92-.77-1.75-.77-2.8.26-1.98.77-2.79c.51-.81,1.22-1.44,2.13-1.9.9-.46,1.93-.68,3.09-.68s2.2.25,3.06.75c.86.5,1.47,1.21,1.83,2.12l-2.83,1.44c-.24-.49-.55-.84-.9-1.07-.36-.22-.75-.34-1.17-.34s-.81.1-1.15.29-.62.47-.82.84c-.2.37-.3.81-.3,1.34s.1,1,.3,1.37c.2.37.47.65.82.85s.73.29,1.15.29.81-.11,1.17-.34c.36-.22.66-.58.9-1.07l2.83,1.44c-.36.91-.97,1.62-1.83,2.12-.86.5-1.88.75-3.06.75Z"></path><path class="cls-6" d="M296.62,210.86c-.67,0-1.21-.19-1.62-.56-.41-.37-.62-.83-.62-1.39s.21-1.01.62-1.39c.41-.37.95-.56,1.62-.56s1.21.18,1.62.53c.41.35.62.81.62,1.36s-.2,1.06-.61,1.43c-.4.38-.95.57-1.63.57ZM294.8,222.45v-10.43h3.66v10.43h-3.66Z"></path><path class="cls-6" d="M306.06,222.62c-1.14,0-2.16-.23-3.04-.69-.88-.46-1.58-1.1-2.09-1.92s-.76-1.75-.76-2.8.25-1.98.76-2.79c.51-.81,1.2-1.44,2.09-1.9.89-.46,1.9-.68,3.04-.68s2.16.23,3.05.68c.89.46,1.59,1.09,2.09,1.9.5.81.75,1.74.75,2.79s-.25,1.99-.75,2.8-1.2,1.45-2.09,1.92-1.91.69-3.05.69ZM306.06,219.71c.42,0,.8-.1,1.13-.29s.59-.48.78-.86c.19-.38.29-.83.29-1.36s-.1-.97-.29-1.34c-.19-.37-.45-.65-.78-.84s-.7-.29-1.13-.29-.78.1-1.11.29-.59.47-.79.84c-.2.37-.3.81-.3,1.34s.1.98.3,1.36c.2.38.46.66.79.86s.7.29,1.11.29ZM304.13,210.76l2.58-2.93h3.66l-3.62,2.93h-2.62Z"></path><path class="cls-6" d="M320.43,211.84c.81,0,1.54.16,2.19.49s1.17.83,1.55,1.51c.38.68.57,1.56.57,2.64v5.97h-3.66v-5.37c0-.74-.15-1.29-.45-1.63-.3-.34-.72-.51-1.26-.51-.38,0-.74.09-1.06.26-.32.17-.57.44-.75.8-.18.36-.27.83-.27,1.4v5.04h-3.66v-10.43h3.48v2.96l-.67-.87c.4-.76.94-1.32,1.64-1.7.69-.38,1.48-.57,2.35-.57Z"></path><path class="cls-6" d="M337.18,222.62c-.95,0-1.81-.22-2.59-.66-.78-.44-1.4-1.06-1.86-1.87s-.69-1.76-.69-2.88.23-2.06.69-2.86,1.08-1.42,1.86-1.86c.78-.44,1.64-.65,2.59-.65.9,0,1.66.19,2.28.58.62.38,1.09.98,1.41,1.77.32.8.48,1.8.48,3.02s-.15,2.26-.46,3.06c-.31.8-.77,1.39-1.39,1.77-.62.38-1.39.58-2.33.58ZM337.95,219.71c.41,0,.78-.1,1.11-.29s.59-.48.78-.86c.19-.38.29-.83.29-1.36s-.1-.97-.29-1.34c-.19-.37-.45-.65-.78-.84s-.7-.29-1.11-.29-.8.1-1.13.29c-.33.19-.59.47-.78.84-.19.37-.29.81-.29,1.34s.1.98.29,1.36c.19.38.45.66.78.86.33.19.7.29,1.13.29ZM340.24,222.45v-1.79l.02-3.45-.19-3.45v-5.6h3.66v14.28h-3.48Z"></path><path class="cls-6" d="M351.53,222.62c-1.23,0-2.31-.23-3.22-.7-.92-.47-1.63-1.11-2.14-1.92-.51-.81-.76-1.74-.76-2.78s.25-1.97.74-2.78c.49-.81,1.18-1.45,2.05-1.91.87-.46,1.85-.68,2.94-.68,1.03,0,1.96.21,2.81.62s1.52,1.03,2.02,1.84c.5.81.75,1.79.75,2.95,0,.13,0,.28-.02.44s-.03.32-.04.46h-8.26v-1.92h6.31l-1.39.54c.01-.47-.07-.89-.26-1.23-.19-.35-.44-.62-.77-.81s-.71-.29-1.15-.29-.82.1-1.15.29-.58.46-.76.82c-.18.35-.27.77-.27,1.24v.56c0,.51.11.96.32,1.33.21.37.52.66.91.86.4.2.87.3,1.42.3.51,0,.95-.07,1.32-.22s.73-.38,1.09-.68l1.92,2c-.5.55-1.12.97-1.85,1.26-.73.29-1.6.43-2.6.43Z"></path><path class="cls-6" d="M369.36,222.62c-1.15,0-2.18-.23-3.09-.69-.9-.46-1.61-1.1-2.13-1.92s-.77-1.75-.77-2.8.26-1.98.77-2.79c.51-.81,1.22-1.44,2.13-1.9.91-.46,1.93-.68,3.09-.68s2.2.25,3.06.75c.86.5,1.47,1.21,1.83,2.12l-2.83,1.44c-.24-.49-.54-.84-.9-1.07-.36-.22-.75-.34-1.17-.34s-.81.1-1.16.29c-.35.19-.62.47-.82.84-.2.37-.3.81-.3,1.34s.1,1,.3,1.37c.2.37.47.65.82.85.35.19.73.29,1.16.29s.81-.11,1.17-.34c.36-.22.66-.58.9-1.07l2.83,1.44c-.36.91-.97,1.62-1.83,2.12-.86.5-1.88.75-3.06.75Z"></path><path class="cls-6" d="M380.75,222.62c-1.14,0-2.16-.23-3.04-.69s-1.58-1.1-2.09-1.92c-.51-.81-.76-1.75-.76-2.8s.25-1.98.76-2.79c.51-.81,1.2-1.44,2.09-1.9.88-.46,1.9-.68,3.04-.68s2.16.23,3.05.68c.89.46,1.59,1.09,2.09,1.9.5.81.75,1.74.75,2.79s-.25,1.99-.75,2.8-1.2,1.45-2.09,1.92c-.89.46-1.91.69-3.05.69ZM380.75,219.71c.42,0,.8-.1,1.13-.29s.59-.48.78-.86c.19-.38.29-.83.29-1.36s-.1-.97-.29-1.34c-.19-.37-.45-.65-.78-.84s-.7-.29-1.13-.29-.78.1-1.11.29-.59.47-.79.84c-.2.37-.3.81-.3,1.34s.1.98.3,1.36c.2.38.46.66.79.86s.7.29,1.11.29Z"></path><path class="cls-6" d="M395.13,211.84c.81,0,1.54.16,2.19.49s1.17.83,1.55,1.51c.38.68.57,1.56.57,2.64v5.97h-3.66v-5.37c0-.74-.15-1.29-.45-1.63s-.72-.51-1.26-.51c-.38,0-.74.09-1.06.26-.32.17-.57.44-.75.8-.18.36-.27.83-.27,1.4v5.04h-3.66v-10.43h3.48v2.96l-.67-.87c.4-.76.94-1.32,1.64-1.7.69-.38,1.47-.57,2.35-.57Z"></path><path class="cls-6" d="M400.63,215.13v-2.73h7.56v2.73h-7.56ZM402.15,222.45v-10.32c0-1.26.38-2.26,1.12-3.01s1.83-1.13,3.22-1.13c.45,0,.89.04,1.33.13.44.09.8.22,1.1.4l-.9,2.58c-.15-.09-.33-.16-.52-.22-.19-.06-.38-.09-.58-.09-.38,0-.68.11-.89.34s-.32.57-.32,1.03v.75l.1,1.52v8.01h-3.66Z"></path><path class="cls-6" d="M414.66,222.62c-1.14,0-2.16-.23-3.04-.69s-1.58-1.1-2.09-1.92c-.51-.81-.76-1.75-.76-2.8s.25-1.98.76-2.79c.51-.81,1.2-1.44,2.09-1.9.88-.46,1.9-.68,3.04-.68s2.16.23,3.05.68c.89.46,1.59,1.09,2.09,1.9.5.81.75,1.74.75,2.79s-.25,1.99-.75,2.8-1.2,1.45-2.09,1.92c-.89.46-1.91.69-3.05.69ZM414.66,219.71c.42,0,.8-.1,1.13-.29s.59-.48.78-.86c.19-.38.29-.83.29-1.36s-.1-.97-.29-1.34c-.19-.37-.45-.65-.78-.84s-.7-.29-1.13-.29-.78.1-1.11.29-.59.47-.79.84c-.2.37-.3.81-.3,1.34s.1.98.3,1.36c.2.38.46.66.79.86s.7.29,1.11.29Z"></path><path class="cls-6" d="M422.25,222.45v-10.43h3.48v3.04l-.52-.87c.31-.78.81-1.37,1.5-1.76.69-.39,1.53-.59,2.52-.59v3.29c-.17-.03-.31-.04-.43-.05-.12,0-.25,0-.39,0-.74,0-1.35.2-1.81.61-.46.4-.69,1.06-.69,1.97v4.79h-3.66Z"></path><path class="cls-6" d="M444.32,211.84c.81,0,1.53.16,2.17.49.63.33,1.13.83,1.5,1.51.37.68.55,1.56.55,2.64v5.97h-3.66v-5.37c0-.74-.14-1.29-.42-1.63s-.67-.51-1.15-.51c-.35,0-.66.08-.94.25s-.5.42-.65.76c-.15.34-.23.78-.23,1.32v5.18h-3.66v-5.37c0-.74-.14-1.29-.41-1.63s-.66-.51-1.16-.51c-.36,0-.68.08-.95.25s-.49.42-.65.76c-.16.34-.24.78-.24,1.32v5.18h-3.66v-10.43h3.48v2.91l-.69-.83c.38-.74.91-1.3,1.58-1.68.67-.38,1.41-.57,2.23-.57.94,0,1.76.24,2.47.72.71.48,1.19,1.23,1.43,2.24l-1.19-.25c.37-.85.93-1.51,1.68-1.99.75-.48,1.61-.72,2.59-.72Z"></path><path class="cls-6" d="M452.67,210.86c-.67,0-1.21-.19-1.62-.56-.41-.37-.62-.83-.62-1.39s.21-1.01.62-1.39c.41-.37.95-.56,1.62-.56s1.21.18,1.62.53c.41.35.62.81.62,1.36s-.2,1.06-.61,1.43c-.4.38-.95.57-1.63.57ZM450.85,222.45v-10.43h3.66v10.43h-3.66Z"></path><path class="cls-6" d="M461.41,222.62c-.95,0-1.81-.22-2.59-.66-.78-.44-1.4-1.06-1.86-1.87s-.69-1.76-.69-2.88.23-2.06.69-2.86,1.08-1.42,1.86-1.86,1.64-.65,2.59-.65c.9,0,1.66.19,2.28.58s1.09.98,1.42,1.77c.32.8.48,1.8.48,3.02s-.15,2.26-.46,3.06-.77,1.39-1.39,1.77c-.62.38-1.39.58-2.33.58ZM462.18,219.71c.41,0,.78-.1,1.11-.29s.59-.48.78-.86c.19-.38.29-.83.29-1.36s-.1-.97-.29-1.34c-.19-.37-.45-.65-.78-.84s-.7-.29-1.11-.29-.8.1-1.13.29-.59.47-.78.84c-.19.37-.29.81-.29,1.34s.1.98.29,1.36c.19.38.45.66.78.86s.7.29,1.13.29ZM464.47,222.45v-1.79l.02-3.45-.19-3.45v-5.6h3.66v14.28h-3.48Z"></path><path class="cls-6" d="M473.6,222.62c-.83,0-1.54-.14-2.12-.42s-1.02-.67-1.32-1.16c-.3-.49-.45-1.03-.45-1.64,0-.64.16-1.2.49-1.67.33-.47.83-.83,1.51-1.08.68-.25,1.56-.38,2.64-.38h2.46v1.91h-1.96c-.59,0-1,.1-1.24.29s-.36.45-.36.77.12.58.37.77c.24.19.58.29,1,.29.4,0,.76-.1,1.09-.3s.57-.5.72-.91l.5,1.35c-.19.72-.57,1.26-1.12,1.63-.56.37-1.29.55-2.2.55ZM476.67,222.45v-1.94l-.25-.48v-3.58c0-.58-.18-1.02-.53-1.34-.35-.31-.91-.47-1.68-.47-.5,0-1.01.08-1.52.24-.51.16-.95.38-1.31.66l-1.23-2.48c.59-.38,1.3-.68,2.13-.89s1.65-.32,2.47-.32c1.69,0,3,.39,3.94,1.16.93.78,1.4,1.99,1.4,3.65v5.79h-3.41Z"></path><path class="cls-6" d="M487.07,222.62c-.95,0-1.81-.22-2.59-.66-.78-.44-1.4-1.06-1.86-1.87s-.69-1.76-.69-2.88.23-2.06.69-2.86,1.08-1.42,1.86-1.86c.78-.44,1.64-.65,2.59-.65.9,0,1.66.19,2.28.58.62.38,1.09.98,1.41,1.77.32.8.48,1.8.48,3.02s-.15,2.26-.46,3.06c-.31.8-.77,1.39-1.39,1.77s-1.39.58-2.33.58ZM487.84,219.71c.41,0,.78-.1,1.11-.29s.59-.48.78-.86c.19-.38.29-.83.29-1.36s-.1-.97-.29-1.34c-.19-.37-.45-.65-.78-.84s-.7-.29-1.11-.29-.8.1-1.13.29-.59.47-.78.84c-.19.37-.29.81-.29,1.34s.1.98.29,1.36c.19.38.45.66.78.86s.7.29,1.13.29ZM490.13,222.45v-1.79l.02-3.45-.19-3.45v-5.6h3.66v14.28h-3.48Z"></path><path class="cls-6" d="M506.89,222.62c-1.15,0-2.18-.23-3.09-.69-.91-.46-1.61-1.1-2.13-1.92-.51-.81-.77-1.75-.77-2.8s.26-1.98.77-2.79c.51-.81,1.22-1.44,2.13-1.9.9-.46,1.93-.68,3.09-.68s2.2.25,3.06.75c.86.5,1.47,1.21,1.83,2.12l-2.83,1.44c-.24-.49-.55-.84-.91-1.07-.36-.22-.75-.34-1.17-.34s-.81.1-1.15.29c-.35.19-.62.47-.82.84-.2.37-.3.81-.3,1.34s.1,1,.3,1.37.47.65.82.85c.35.19.73.29,1.15.29s.81-.11,1.17-.34c.36-.22.66-.58.91-1.07l2.83,1.44c-.36.91-.97,1.62-1.83,2.12-.86.5-1.88.75-3.06.75Z"></path><path class="cls-6" d="M518.29,222.62c-1.14,0-2.16-.23-3.04-.69-.89-.46-1.58-1.1-2.09-1.92s-.76-1.75-.76-2.8.25-1.98.76-2.79c.51-.81,1.2-1.44,2.09-1.9.88-.46,1.9-.68,3.04-.68s2.16.23,3.05.68c.89.46,1.59,1.09,2.09,1.9.5.81.75,1.74.75,2.79s-.25,1.99-.75,2.8c-.5.81-1.2,1.45-2.09,1.92s-1.91.69-3.05.69ZM518.29,219.71c.42,0,.8-.1,1.12-.29.33-.19.59-.48.78-.86.19-.38.29-.83.29-1.36s-.1-.97-.29-1.34c-.19-.37-.45-.65-.78-.84-.33-.19-.7-.29-1.12-.29s-.78.1-1.11.29-.59.47-.79.84c-.2.37-.3.81-.3,1.34s.1.98.3,1.36c.2.38.46.66.79.86s.7.29,1.11.29Z"></path><path class="cls-6" d="M532.66,211.84c.81,0,1.54.16,2.19.49s1.17.83,1.55,1.51c.38.68.57,1.56.57,2.64v5.97h-3.66v-5.37c0-.74-.15-1.29-.45-1.63-.3-.34-.72-.51-1.26-.51-.38,0-.74.09-1.06.26-.32.17-.57.44-.75.8-.18.36-.27.83-.27,1.4v5.04h-3.66v-10.43h3.48v2.96l-.67-.87c.4-.76.94-1.32,1.64-1.7.69-.38,1.48-.57,2.35-.57Z"></path><path class="cls-6" d="M544.86,222.45v-14.28h3.66v14.28h-3.66Z"></path><path class="cls-6" d="M554.18,222.62c-.83,0-1.54-.14-2.12-.42s-1.02-.67-1.32-1.16c-.3-.49-.45-1.03-.45-1.64,0-.64.16-1.2.49-1.67.33-.47.83-.83,1.51-1.08.68-.25,1.56-.38,2.64-.38h2.46v1.91h-1.96c-.59,0-1,.1-1.24.29s-.36.45-.36.77.12.58.37.77c.24.19.58.29,1,.29.4,0,.76-.1,1.09-.3s.57-.5.72-.91l.5,1.35c-.19.72-.57,1.26-1.12,1.63-.56.37-1.29.55-2.2.55ZM557.26,222.45v-1.94l-.25-.48v-3.58c0-.58-.18-1.02-.53-1.34-.35-.31-.91-.47-1.68-.47-.5,0-1.01.08-1.52.24-.51.16-.95.38-1.31.66l-1.23-2.48c.59-.38,1.3-.68,2.13-.89s1.65-.32,2.47-.32c1.69,0,3,.39,3.94,1.16.93.78,1.4,1.99,1.4,3.65v5.79h-3.41Z"></path><path class="cls-6" d="M171.62,245.54v-13.47h3.81v10.45h6.43v3.02h-10.24Z"></path><path class="cls-6" d="M188.61,245.71c-1.23,0-2.31-.23-3.22-.7-.92-.47-1.63-1.11-2.14-1.92-.51-.81-.76-1.74-.76-2.78s.25-1.97.74-2.78c.49-.81,1.18-1.45,2.05-1.91.87-.46,1.85-.68,2.94-.68,1.03,0,1.96.21,2.81.62.85.42,1.52,1.03,2.02,1.84.5.81.75,1.79.75,2.95,0,.13,0,.28-.02.44s-.03.32-.04.46h-8.26v-1.92h6.31l-1.39.54c.01-.47-.07-.89-.26-1.23-.19-.35-.44-.62-.77-.81-.33-.19-.71-.29-1.15-.29s-.82.1-1.15.29-.58.46-.76.82c-.18.35-.27.77-.27,1.24v.56c0,.51.11.96.32,1.33s.52.66.91.86c.4.2.87.3,1.42.3.51,0,.95-.07,1.32-.22.37-.15.73-.38,1.09-.68l1.92,2c-.5.55-1.12.97-1.85,1.26s-1.6.43-2.6.43Z"></path><path class="cls-6" d="M198.53,245.98l-4.6-10.87h3.75l3.39,8.43-2.54,2.44ZM197.1,249.45c-.55,0-1.11-.09-1.67-.26-.56-.17-1.01-.4-1.36-.68l1.27-2.56c.22.19.47.34.76.45.29.11.57.16.86.16.4,0,.71-.09.94-.27.23-.18.43-.46.6-.85l.48-1.21.29-.37,3.54-8.76h3.48l-4.5,10.86c-.36.9-.77,1.6-1.24,2.11-.47.51-.99.86-1.56,1.07-.57.21-1.2.31-1.9.31Z"></path><path class="cls-6" d="M213.02,245.54v-13.47h3.77v13.47h-3.77ZM216.43,242.56l-.21-4.27,5.79-6.22h4.2l-5.77,6.25-2.12,2.21-1.89,2.02ZM222.06,245.54l-4.39-5.56,2.48-2.66,6.33,8.22h-4.43Z"></path><path class="cls-6" d="M230.4,245.71c-.83,0-1.54-.14-2.12-.42-.58-.28-1.02-.67-1.32-1.16-.3-.49-.45-1.03-.45-1.64,0-.64.16-1.2.49-1.67.33-.47.83-.83,1.51-1.08.68-.25,1.56-.38,2.64-.38h2.46v1.91h-1.96c-.59,0-1,.1-1.24.29-.24.19-.36.45-.36.77s.12.58.37.77c.24.19.58.29,1,.29.4,0,.76-.1,1.09-.3s.57-.5.72-.91l.5,1.35c-.19.72-.57,1.26-1.13,1.63-.56.37-1.29.55-2.2.55ZM233.48,245.54v-1.94l-.25-.48v-3.58c0-.58-.18-1.02-.53-1.34-.35-.31-.91-.47-1.68-.47-.5,0-1.01.08-1.52.24-.51.16-.95.38-1.31.66l-1.23-2.48c.59-.38,1.3-.68,2.13-.89s1.65-.32,2.47-.32c1.69,0,3.01.39,3.94,1.16s1.4,1.99,1.4,3.65v5.79h-3.41Z"></path><path class="cls-6" d="M239.19,245.54v-10.43h3.48v3.04l-.52-.87c.31-.78.81-1.37,1.5-1.76s1.53-.59,2.52-.59v3.29c-.17-.03-.31-.04-.43-.05-.12,0-.25,0-.39,0-.74,0-1.35.2-1.81.61-.46.4-.69,1.06-.69,1.97v4.79h-3.66Z"></path><path class="cls-6" d="M249.51,233.96c-.67,0-1.21-.19-1.62-.56s-.62-.83-.62-1.39.21-1.01.62-1.39.95-.56,1.62-.56,1.21.18,1.62.53c.41.35.62.81.62,1.36s-.2,1.06-.61,1.43c-.4.38-.95.57-1.63.57ZM247.68,245.54v-10.43h3.66v10.43h-3.66Z"></path><path class="cls-6" d="M260.5,234.94c.81,0,1.54.16,2.19.49s1.17.83,1.55,1.51c.38.68.57,1.56.57,2.64v5.97h-3.66v-5.37c0-.74-.15-1.29-.45-1.63-.3-.34-.72-.51-1.26-.51-.38,0-.74.09-1.06.26-.32.17-.57.44-.75.8-.18.36-.27.83-.27,1.4v5.04h-3.66v-10.43h3.48v2.96l-.67-.87c.4-.76.94-1.32,1.64-1.7.69-.38,1.48-.57,2.35-.57Z"></path><path class="cls-6" d="M266.7,248.56l1.44-5,.52,2.08c-.64,0-1.17-.19-1.58-.57-.41-.38-.62-.89-.62-1.53s.21-1.19.62-1.58.94-.58,1.57-.58,1.15.2,1.56.59c.41.39.62.91.62,1.57,0,.18-.01.36-.04.54-.03.18-.08.4-.17.65-.09.26-.23.6-.42,1.02l-1.21,2.81h-2.29Z"></path><path class="cls-6" d="M282.52,245.64c-1,0-1.9-.22-2.69-.66-.79-.44-1.41-1.05-1.86-1.83-.45-.78-.67-1.67-.67-2.67s.22-1.91.67-2.68c.45-.77,1.07-1.37,1.86-1.81.79-.44,1.68-.66,2.69-.66.86,0,1.64.17,2.33.5.69.33,1.24.83,1.64,1.5l-1.02.69c-.35-.51-.78-.89-1.29-1.14s-1.07-.37-1.67-.37c-.72,0-1.37.16-1.94.49-.58.33-1.03.79-1.37,1.38-.33.59-.5,1.28-.5,2.08s.17,1.49.5,2.08c.33.59.79,1.05,1.37,1.38.58.33,1.23.49,1.94.49.6,0,1.16-.12,1.67-.37.51-.24.94-.62,1.29-1.12l1.02.69c-.4.65-.94,1.15-1.64,1.49-.69.34-1.47.51-2.33.51Z"></path><path class="cls-6" d="M292.01,245.64c-.76,0-1.41-.13-1.97-.38s-.98-.6-1.28-1.04c-.3-.44-.44-.95-.44-1.53,0-.53.12-1,.38-1.43.25-.43.66-.78,1.23-1.04.57-.26,1.34-.39,2.3-.39h3.48v1.02h-3.44c-.98,0-1.65.17-2.03.52s-.57.78-.57,1.29c0,.58.22,1.04.67,1.39.45.35,1.08.52,1.89.52s1.43-.18,1.99-.53c.56-.35.97-.86,1.22-1.53l.31.94c-.26.67-.7,1.2-1.34,1.6-.63.4-1.43.6-2.4.6ZM295.49,245.54v-2.23l-.06-.37v-3.73c0-.86-.24-1.52-.72-1.98s-1.2-.69-2.15-.69c-.65,0-1.28.11-1.87.33-.59.22-1.09.51-1.5.87l-.62-1.02c.51-.44,1.13-.77,1.85-1.01.72-.24,1.48-.36,2.27-.36,1.31,0,2.32.32,3.03.97.71.65,1.07,1.63,1.07,2.95v6.27h-1.31Z"></path><path class="cls-6" d="M300.51,249.28v-13.84h1.31v3.04l-.13,2.02.19,2.04v6.74h-1.37ZM305.73,245.64c-.87,0-1.66-.2-2.37-.61s-1.27-.99-1.68-1.75c-.42-.76-.63-1.7-.63-2.8s.21-2.04.62-2.8.97-1.34,1.67-1.74c.71-.4,1.5-.6,2.39-.6.96,0,1.82.22,2.59.65.76.43,1.36,1.03,1.8,1.81.44.78.65,1.67.65,2.69s-.22,1.92-.65,2.69c-.44.77-1.04,1.37-1.8,1.81-.76.44-1.63.66-2.59.66ZM305.63,244.43c.72,0,1.36-.16,1.92-.49s1.01-.79,1.35-1.39.5-1.29.5-2.07-.17-1.47-.5-2.06-.78-1.05-1.35-1.39-1.21-.5-1.92-.5-1.36.17-1.93.5c-.57.33-1.02.8-1.35,1.39s-.49,1.28-.49,2.06.16,1.47.49,2.07.78,1.06,1.35,1.39c.57.33,1.22.49,1.93.49Z"></path><path class="cls-6" d="M311.98,236.57v-1.14h6.25v1.14h-6.25ZM316.76,245.64c-.95,0-1.68-.26-2.19-.77-.51-.51-.77-1.24-.77-2.17v-9.49h1.37v9.41c0,.59.15,1.05.45,1.37.3.32.73.48,1.3.48.6,0,1.1-.17,1.5-.52l.48.98c-.27.24-.59.42-.97.54-.38.12-.77.17-1.16.17Z"></path><path class="cls-6" d="M325.55,245.64c-.86,0-1.61-.16-2.25-.48s-1.14-.8-1.49-1.44c-.35-.64-.53-1.44-.53-2.41v-5.87h1.37v5.72c0,1.08.27,1.89.8,2.44.53.54,1.28.82,2.24.82.71,0,1.32-.14,1.84-.43.52-.29.92-.71,1.19-1.26s.41-1.21.41-1.98v-5.29h1.37v10.1h-1.31v-2.77l.21.5c-.32.75-.82,1.33-1.49,1.74s-1.46.63-2.36.63Z"></path><path class="cls-6" d="M334.31,245.54v-10.1h1.31v2.75l-.13-.48c.28-.77.76-1.36,1.42-1.76s1.49-.61,2.48-.61v1.33c-.05,0-.1,0-.15,0-.05,0-.1,0-.15,0-1.07,0-1.9.32-2.5.97-.6.65-.9,1.57-.9,2.76v5.16h-1.37Z"></path><path class="cls-6" d="M343.97,245.64c-.76,0-1.41-.13-1.97-.38-.56-.25-.99-.6-1.28-1.04s-.44-.95-.44-1.53c0-.53.12-1,.38-1.43.25-.43.66-.78,1.23-1.04.57-.26,1.34-.39,2.3-.39h3.48v1.02h-3.45c-.98,0-1.65.17-2.03.52-.38.35-.57.78-.57,1.29,0,.58.22,1.04.67,1.39.45.35,1.08.52,1.89.52s1.43-.18,1.99-.53c.56-.35.96-.86,1.22-1.53l.31.94c-.26.67-.7,1.2-1.34,1.6-.64.4-1.43.6-2.4.6ZM347.45,245.54v-2.23l-.06-.37v-3.73c0-.86-.24-1.52-.72-1.98s-1.2-.69-2.15-.69c-.65,0-1.28.11-1.87.33-.59.22-1.09.51-1.5.87l-.62-1.02c.51-.44,1.13-.77,1.85-1.01.72-.24,1.48-.36,2.27-.36,1.31,0,2.32.32,3.03.97.71.65,1.07,1.63,1.07,2.95v6.27h-1.31Z"></path><path class="cls-6" d="M357.64,235.34c.82,0,1.54.16,2.17.47.62.31,1.11.79,1.46,1.43.35.64.53,1.45.53,2.42v5.87h-1.37v-5.74c0-1.07-.27-1.87-.8-2.42-.53-.54-1.28-.82-2.24-.82-.72,0-1.34.14-1.88.43-.53.29-.94.71-1.23,1.25-.29.55-.43,1.2-.43,1.97v5.31h-1.37v-10.1h1.31v2.77l-.21-.52c.32-.73.83-1.31,1.54-1.72.71-.42,1.55-.63,2.52-.63Z"></path><path class="cls-6" d="M369.51,245.64c-.96,0-1.83-.22-2.59-.66-.76-.44-1.36-1.04-1.8-1.82-.44-.78-.65-1.67-.65-2.68s.22-1.92.65-2.7c.44-.77,1.04-1.37,1.8-1.8s1.63-.65,2.59-.65c.89,0,1.68.2,2.38.6.7.4,1.26.98,1.67,1.74.42.76.62,1.7.62,2.8s-.21,2.02-.62,2.79c-.41.77-.97,1.36-1.67,1.76-.7.4-1.5.61-2.4.61ZM369.61,244.43c.72,0,1.36-.16,1.93-.49.57-.33,1.02-.79,1.35-1.39s.49-1.29.49-2.07-.16-1.49-.49-2.08c-.33-.59-.78-1.05-1.35-1.38-.57-.33-1.22-.49-1.93-.49s-1.34.16-1.91.49-1.01.79-1.35,1.38c-.33.59-.5,1.28-.5,2.08s.17,1.47.5,2.07c.33.6.78,1.06,1.35,1.39s1.2.49,1.91.49ZM373.42,245.54v-3.04l.13-2.04-.19-2.04v-7.16h1.37v14.28h-1.31Z"></path><path class="cls-6" d="M382.66,245.64c-.98,0-1.85-.22-2.63-.66-.78-.44-1.39-1.05-1.84-1.83-.45-.78-.67-1.67-.67-2.67s.22-1.91.67-2.68c.45-.77,1.06-1.37,1.83-1.81.77-.44,1.65-.66,2.64-.66s1.89.22,2.67.66c.78.44,1.38,1.04,1.83,1.81.44.77.66,1.66.66,2.68s-.22,1.89-.66,2.67c-.44.78-1.06,1.39-1.84,1.83-.78.44-1.67.66-2.66.66ZM382.66,244.43c.73,0,1.38-.16,1.94-.49s1.01-.79,1.34-1.39.49-1.29.49-2.07-.16-1.49-.49-2.08c-.33-.59-.77-1.05-1.34-1.38s-1.21-.49-1.92-.49-1.36.16-1.92.49c-.57.33-1.01.79-1.35,1.38-.33.59-.5,1.28-.5,2.08s.17,1.47.5,2.07c.33.6.78,1.06,1.35,1.39.56.33,1.2.49,1.91.49Z"></path><path class="cls-6" d="M399.67,245.64c-.96,0-1.83-.22-2.59-.66-.76-.44-1.36-1.04-1.8-1.82-.44-.78-.65-1.67-.65-2.68s.22-1.92.65-2.7c.44-.77,1.04-1.37,1.8-1.8s1.63-.65,2.59-.65c.88,0,1.68.2,2.38.6.7.4,1.26.98,1.67,1.74s.62,1.7.62,2.8-.21,2.02-.62,2.79c-.41.77-.96,1.36-1.66,1.76s-1.5.61-2.4.61ZM399.77,244.43c.72,0,1.36-.16,1.93-.49s1.02-.79,1.35-1.39.49-1.29.49-2.07-.16-1.49-.49-2.08c-.33-.59-.78-1.05-1.35-1.38s-1.22-.49-1.93-.49-1.34.16-1.9.49c-.57.33-1.01.79-1.35,1.38-.33.59-.5,1.28-.5,2.08s.17,1.47.5,2.07c.33.6.78,1.06,1.35,1.39.56.33,1.2.49,1.9.49ZM403.58,245.54v-3.04l.13-2.04-.19-2.04v-7.16h1.37v14.28h-1.31Z"></path><path class="cls-6" d="M411.55,245.64c-.76,0-1.41-.13-1.97-.38s-.99-.6-1.28-1.04-.44-.95-.44-1.53c0-.53.12-1,.38-1.43s.66-.78,1.23-1.04c.57-.26,1.34-.39,2.3-.39h3.48v1.02h-3.45c-.97,0-1.65.17-2.03.52-.38.35-.57.78-.57,1.29,0,.58.22,1.04.67,1.39.45.35,1.08.52,1.89.52s1.43-.18,1.99-.53c.56-.35.96-.86,1.22-1.53l.31.94c-.26.67-.7,1.2-1.34,1.6-.64.4-1.43.6-2.4.6ZM415.03,245.54v-2.23l-.06-.37v-3.73c0-.86-.24-1.52-.72-1.98s-1.2-.69-2.15-.69c-.65,0-1.28.11-1.87.33-.59.22-1.09.51-1.5.87l-.62-1.02c.51-.44,1.13-.77,1.85-1.01s1.48-.36,2.27-.36c1.31,0,2.32.32,3.03.97.71.65,1.07,1.63,1.07,2.95v6.27h-1.31Z"></path><path class="cls-6" d="M418.47,236.57v-1.14h6.25v1.14h-6.25ZM423.25,245.64c-.95,0-1.68-.26-2.19-.77-.51-.51-.77-1.24-.77-2.17v-9.49h1.37v9.41c0,.59.15,1.05.45,1.37.3.32.73.48,1.3.48.6,0,1.1-.17,1.5-.52l.48.98c-.27.24-.59.42-.97.54s-.77.17-1.16.17Z"></path><path class="cls-6" d="M431.62,245.64c-.98,0-1.85-.22-2.63-.66-.78-.44-1.39-1.05-1.84-1.83-.45-.78-.67-1.67-.67-2.67s.22-1.91.67-2.68c.45-.77,1.06-1.37,1.83-1.81.77-.44,1.65-.66,2.64-.66s1.89.22,2.67.66c.78.44,1.38,1.04,1.83,1.81.44.77.66,1.66.66,2.68s-.22,1.89-.66,2.67c-.44.78-1.06,1.39-1.84,1.83-.78.44-1.67.66-2.66.66ZM431.62,244.43c.73,0,1.38-.16,1.94-.49s1.01-.79,1.34-1.39.49-1.29.49-2.07-.16-1.49-.49-2.08c-.33-.59-.77-1.05-1.34-1.38s-1.21-.49-1.92-.49-1.36.16-1.92.49c-.57.33-1.01.79-1.35,1.38-.33.59-.5,1.28-.5,2.08s.17,1.47.5,2.07c.33.6.78,1.06,1.35,1.39.56.33,1.2.49,1.91.49Z"></path><path class="cls-6" d="M442.28,245.64c-.83,0-1.62-.12-2.37-.36s-1.33-.54-1.75-.9l.62-1.08c.41.31.94.57,1.58.8.64.22,1.31.34,2.02.34.96,0,1.66-.15,2.08-.45.42-.3.63-.7.63-1.2,0-.37-.12-.66-.36-.88-.24-.21-.55-.37-.93-.48-.39-.11-.82-.2-1.29-.28-.47-.08-.95-.17-1.42-.27-.47-.1-.89-.25-1.28-.45-.38-.2-.7-.47-.93-.82s-.36-.81-.36-1.39.15-1.05.46-1.48c.31-.44.76-.78,1.36-1.03s1.32-.38,2.18-.38c.65,0,1.31.09,1.96.26.65.17,1.19.4,1.62.68l-.6,1.1c-.45-.31-.93-.53-1.44-.66-.51-.13-1.03-.2-1.54-.2-.91,0-1.58.16-2.01.47s-.64.71-.64,1.2c0,.39.12.69.36.91.24.22.55.39.94.51s.82.22,1.29.3c.47.08.94.17,1.4.28.47.11.9.26,1.29.44.39.19.71.45.94.79s.36.79.36,1.34c0,.59-.16,1.1-.49,1.53s-.8.76-1.42,1c-.62.24-1.38.36-2.26.36Z"></path><path class="cls-6" d="M458.03,245.64c-.96,0-1.83-.22-2.59-.66-.76-.44-1.36-1.04-1.8-1.81s-.65-1.67-.65-2.69.22-1.91.65-2.69,1.04-1.38,1.8-1.81c.76-.43,1.63-.65,2.59-.65.9,0,1.7.2,2.4.6.7.4,1.25.98,1.66,1.74s.62,1.7.62,2.8-.21,2.04-.63,2.8c-.42.76-.97,1.35-1.67,1.75s-1.49.61-2.38.61ZM458.12,244.43c.72,0,1.36-.16,1.93-.49s1.02-.79,1.35-1.39c.33-.6.49-1.29.49-2.07s-.16-1.47-.49-2.06c-.33-.59-.78-1.05-1.35-1.39s-1.22-.5-1.93-.5-1.34.17-1.91.5-1.01.8-1.35,1.39c-.33.59-.5,1.28-.5,2.06s.17,1.47.5,2.07c.33.6.78,1.06,1.35,1.39s1.2.49,1.91.49ZM461.88,249.28v-6.74l.19-2.04-.13-2.02v-3.04h1.31v13.84h-1.37Z"></path><path class="cls-6" d="M471.23,245.64c-.86,0-1.61-.16-2.25-.48-.64-.32-1.14-.8-1.49-1.44-.35-.64-.53-1.44-.53-2.41v-5.87h1.37v5.72c0,1.08.27,1.89.8,2.44.53.54,1.28.82,2.24.82.71,0,1.32-.14,1.84-.43.52-.29.92-.71,1.19-1.26.28-.55.41-1.21.41-1.98v-5.29h1.37v10.1h-1.31v-2.77l.21.5c-.32.75-.82,1.33-1.49,1.74s-1.46.63-2.36.63Z"></path><path class="cls-6" d="M484.28,245.64c-1.05,0-1.98-.22-2.77-.66-.8-.44-1.42-1.05-1.87-1.83s-.67-1.67-.67-2.67.21-1.89.64-2.66c.43-.77,1.02-1.38,1.77-1.82.75-.44,1.59-.66,2.53-.66s1.79.22,2.53.65,1.32,1.03,1.74,1.81c.42.78.63,1.67.63,2.69,0,.06,0,.13,0,.2s0,.14,0,.22h-8.8v-1.02h8.06l-.54.4c0-.73-.16-1.38-.47-1.95-.31-.57-.74-1.02-1.28-1.34-.54-.32-1.16-.48-1.87-.48s-1.32.16-1.87.48c-.55.32-.98.77-1.29,1.35s-.46,1.24-.46,1.98v.21c0,.77.17,1.45.51,2.03s.82,1.04,1.42,1.37,1.31.49,2.09.49c.62,0,1.19-.11,1.72-.33s.99-.55,1.38-1l.77.89c-.45.54-1.01.95-1.68,1.23s-1.41.42-2.22.42Z"></path><path class="cls-6" d="M496.65,245.54v-10.1h1.31v2.75l-.13-.48c.28-.77.76-1.36,1.42-1.76s1.49-.61,2.48-.61v1.33c-.05,0-.1,0-.15,0-.05,0-.1,0-.15,0-1.07,0-1.9.32-2.5.97-.6.65-.9,1.57-.9,2.76v5.16h-1.37Z"></path><path class="cls-6" d="M508.41,245.64c-1.05,0-1.98-.22-2.77-.66-.8-.44-1.42-1.05-1.87-1.83s-.67-1.67-.67-2.67.21-1.89.65-2.66c.43-.77,1.02-1.38,1.77-1.82.75-.44,1.59-.66,2.53-.66s1.79.22,2.53.65c.74.43,1.32,1.03,1.74,1.81s.63,1.67.63,2.69c0,.06,0,.13,0,.2,0,.07,0,.14,0,.22h-8.8v-1.02h8.06l-.54.4c0-.73-.16-1.38-.47-1.95-.31-.57-.74-1.02-1.28-1.34-.54-.32-1.16-.48-1.87-.48s-1.32.16-1.87.48c-.55.32-.98.77-1.29,1.35-.31.58-.46,1.24-.46,1.98v.21c0,.77.17,1.45.51,2.03.34.58.81,1.04,1.42,1.37s1.31.49,2.09.49c.62,0,1.19-.11,1.72-.33.53-.22.99-.55,1.38-1l.77.89c-.45.54-1.01.95-1.68,1.23-.67.28-1.41.42-2.22.42Z"></path><path class="cls-6" d="M514.17,236.57v-1.14h6.25v1.14h-6.25ZM515.98,245.54v-11.38c0-.9.26-1.62.79-2.17.53-.55,1.28-.83,2.27-.83.38,0,.76.05,1.12.15.36.1.66.26.9.48l-.46,1.02c-.19-.17-.42-.29-.67-.38-.26-.08-.53-.12-.83-.12-.58,0-1.02.16-1.33.48-.31.32-.46.8-.46,1.42v1.54l.04.63v9.14h-1.37ZM522.27,245.54v-14.28h1.37v14.28h-1.37Z"></path><path class="cls-6" d="M531.76,245.64c-1.05,0-1.98-.22-2.77-.66-.8-.44-1.42-1.05-1.87-1.83s-.67-1.67-.67-2.67.21-1.89.65-2.66c.43-.77,1.02-1.38,1.77-1.82.75-.44,1.59-.66,2.53-.66s1.79.22,2.53.65c.74.43,1.32,1.03,1.74,1.81s.63,1.67.63,2.69c0,.06,0,.13,0,.2,0,.07,0,.14,0,.22h-8.8v-1.02h8.06l-.54.4c0-.73-.16-1.38-.47-1.95-.31-.57-.74-1.02-1.28-1.34-.54-.32-1.16-.48-1.87-.48s-1.32.16-1.87.48c-.55.32-.98.77-1.29,1.35-.31.58-.46,1.24-.46,1.98v.21c0,.77.17,1.45.51,2.03.34.58.81,1.04,1.42,1.37s1.31.49,2.09.49c.62,0,1.19-.11,1.72-.33.53-.22.99-.55,1.38-1l.77.89c-.45.54-1.01.95-1.68,1.23-.67.28-1.41.42-2.22.42Z"></path><path class="cls-6" d="M537.59,249.37c-.41,0-.81-.05-1.18-.16-.38-.11-.7-.27-.95-.49l.48-1.04c.41.35.94.52,1.58.52.54,0,.95-.16,1.24-.48.29-.32.43-.8.43-1.42v-10.86h1.37v10.86c0,.94-.25,1.68-.76,2.24-.51.56-1.24.84-2.2.84ZM539.88,233.21c-.28,0-.52-.1-.71-.29s-.29-.42-.29-.69.1-.5.29-.68c.19-.19.43-.28.71-.28s.52.09.71.27.29.4.29.67-.09.52-.28.71-.43.29-.72.29Z"></path><path class="cls-6" d="M547.21,245.64c-.76,0-1.42-.13-1.97-.38-.56-.25-.99-.6-1.28-1.04-.3-.44-.44-.95-.44-1.53,0-.53.12-1,.38-1.43s.66-.78,1.23-1.04c.57-.26,1.34-.39,2.3-.39h3.48v1.02h-3.45c-.98,0-1.65.17-2.03.52-.38.35-.57.78-.57,1.29,0,.58.22,1.04.67,1.39.45.35,1.08.52,1.89.52s1.43-.18,1.99-.53c.56-.35.97-.86,1.22-1.53l.31.94c-.26.67-.7,1.2-1.34,1.6-.64.4-1.43.6-2.4.6ZM550.7,245.54v-2.23l-.06-.37v-3.73c0-.86-.24-1.52-.72-1.98s-1.2-.69-2.15-.69c-.65,0-1.28.11-1.87.33-.59.22-1.09.51-1.5.87l-.62-1.02c.51-.44,1.13-.77,1.85-1.01.72-.24,1.47-.36,2.27-.36,1.31,0,2.32.32,3.03.97.71.65,1.07,1.63,1.07,2.95v6.27h-1.31Z"></path><path class="cls-6" d="M560.88,235.34c.82,0,1.54.16,2.17.47.62.31,1.11.79,1.46,1.43.35.64.53,1.45.53,2.42v5.87h-1.37v-5.74c0-1.07-.27-1.87-.8-2.42-.53-.54-1.28-.82-2.24-.82-.72,0-1.34.14-1.88.43-.53.29-.94.71-1.23,1.25-.29.55-.43,1.2-.43,1.97v5.31h-1.37v-10.1h1.31v2.77l-.21-.52c.32-.73.83-1.31,1.54-1.72s1.55-.63,2.52-.63Z"></path><path class="cls-6" d="M172.18,268.64v-14.28h1.37v14.28h-1.37Z"></path><path class="cls-6" d="M180.2,268.73c-.76,0-1.41-.13-1.97-.38-.56-.25-.99-.6-1.28-1.04s-.44-.95-.44-1.53c0-.53.12-1,.38-1.43.25-.43.66-.78,1.23-1.04.57-.26,1.34-.39,2.3-.39h3.48v1.02h-3.45c-.98,0-1.65.17-2.03.52-.38.35-.57.78-.57,1.29,0,.58.22,1.04.67,1.39.45.35,1.08.52,1.89.52s1.43-.18,1.99-.53c.56-.35.96-.86,1.22-1.53l.31.94c-.26.67-.7,1.2-1.34,1.6-.64.4-1.43.6-2.4.6ZM183.69,268.64v-2.23l-.06-.37v-3.73c0-.86-.24-1.52-.72-1.98s-1.2-.69-2.15-.69c-.65,0-1.28.11-1.87.33-.59.22-1.09.51-1.5.87l-.62-1.02c.51-.44,1.13-.77,1.85-1.01.72-.24,1.48-.36,2.27-.36,1.31,0,2.32.32,3.03.97.71.65,1.07,1.63,1.07,2.95v6.27h-1.31Z"></path><path class="cls-6" d="M197.95,268.73c-1,0-1.9-.22-2.68-.66-.79-.44-1.41-1.05-1.86-1.83s-.67-1.67-.67-2.67.22-1.91.67-2.68c.45-.77,1.07-1.37,1.86-1.81.79-.44,1.68-.66,2.68-.66.86,0,1.64.17,2.33.5.69.33,1.24.83,1.64,1.5l-1.02.69c-.35-.51-.78-.89-1.29-1.14s-1.07-.37-1.67-.37c-.72,0-1.37.16-1.94.49-.58.33-1.03.79-1.37,1.38-.33.59-.5,1.28-.5,2.08s.17,1.49.5,2.08c.33.59.79,1.05,1.37,1.38.58.33,1.23.49,1.94.49.6,0,1.16-.12,1.67-.37.51-.24.94-.62,1.29-1.12l1.02.69c-.4.65-.94,1.15-1.64,1.49-.69.34-1.47.51-2.33.51Z"></path><path class="cls-6" d="M208.53,268.73c-.98,0-1.85-.22-2.63-.66-.78-.44-1.39-1.05-1.84-1.83-.45-.78-.67-1.67-.67-2.67s.22-1.91.67-2.68c.45-.77,1.06-1.37,1.83-1.81.77-.44,1.65-.66,2.64-.66s1.89.22,2.67.66c.78.44,1.39,1.04,1.83,1.81.44.77.66,1.66.66,2.68s-.22,1.89-.66,2.67c-.44.78-1.06,1.39-1.84,1.83-.78.44-1.67.66-2.66.66ZM208.53,267.52c.73,0,1.38-.16,1.94-.49s1.01-.79,1.34-1.39.49-1.29.49-2.07-.16-1.49-.49-2.08c-.33-.59-.77-1.05-1.34-1.38s-1.21-.49-1.92-.49-1.36.16-1.92.49c-.57.33-1.01.79-1.35,1.38-.33.59-.5,1.28-.5,2.08s.17,1.47.5,2.07c.33.6.78,1.06,1.35,1.39.56.33,1.2.49,1.91.49Z"></path><path class="cls-6" d="M229.11,258.44c.82,0,1.54.16,2.15.47.61.31,1.08.79,1.42,1.43s.51,1.45.51,2.42v5.87h-1.37v-5.74c0-1.07-.25-1.87-.76-2.42-.51-.54-1.22-.82-2.15-.82-.69,0-1.29.14-1.8.43-.51.29-.9.71-1.17,1.25-.28.55-.41,1.2-.41,1.97v5.31h-1.37v-5.74c0-1.07-.26-1.87-.77-2.42-.51-.54-1.23-.82-2.16-.82-.68,0-1.28.14-1.79.43-.51.29-.91.71-1.18,1.25-.28.55-.41,1.2-.41,1.97v5.31h-1.37v-10.1h1.31v2.73l-.21-.48c.31-.73.8-1.31,1.49-1.72s1.5-.63,2.43-.63c.99,0,1.83.25,2.52.74.69.49,1.14,1.24,1.35,2.22l-.54-.21c.29-.82.82-1.49,1.57-1.99.75-.51,1.65-.76,2.7-.76Z"></path><path class="cls-6" d="M236.9,272.37v-13.84h1.31v3.04l-.13,2.02.19,2.04v6.74h-1.37ZM242.12,268.73c-.87,0-1.66-.2-2.37-.61-.71-.4-1.27-.99-1.68-1.75-.42-.76-.62-1.7-.62-2.8s.21-2.04.62-2.8.97-1.34,1.67-1.74c.71-.4,1.5-.6,2.39-.6.96,0,1.83.22,2.59.65.76.43,1.36,1.03,1.8,1.81s.65,1.67.65,2.69-.22,1.92-.65,2.69-1.04,1.37-1.8,1.81c-.76.44-1.63.66-2.59.66ZM242.02,267.52c.72,0,1.36-.16,1.92-.49s1.01-.79,1.35-1.39c.33-.6.5-1.29.5-2.07s-.17-1.47-.5-2.06c-.33-.59-.78-1.05-1.35-1.39s-1.21-.5-1.92-.5-1.36.17-1.93.5c-.57.33-1.02.8-1.35,1.39s-.49,1.28-.49,2.06.16,1.47.49,2.07.78,1.06,1.35,1.39c.57.33,1.22.49,1.93.49Z"></path><path class="cls-6" d="M249.95,268.64v-10.1h1.31v2.75l-.13-.48c.28-.77.76-1.36,1.42-1.76.67-.4,1.49-.61,2.48-.61v1.33c-.05,0-.1,0-.15,0-.05,0-.1,0-.15,0-1.07,0-1.9.32-2.5.97-.6.65-.9,1.57-.9,2.76v5.16h-1.37Z"></path><path class="cls-6" d="M261.71,268.73c-1.05,0-1.98-.22-2.77-.66-.8-.44-1.42-1.05-1.87-1.83-.45-.78-.67-1.67-.67-2.67s.21-1.89.65-2.66c.43-.77,1.02-1.38,1.77-1.82.75-.44,1.59-.66,2.53-.66s1.79.22,2.53.65c.74.43,1.32,1.03,1.74,1.81s.63,1.67.63,2.69c0,.06,0,.13,0,.2s0,.14,0,.22h-8.8v-1.02h8.06l-.54.4c0-.73-.16-1.38-.47-1.95-.31-.57-.74-1.02-1.28-1.34-.54-.32-1.16-.48-1.87-.48s-1.32.16-1.87.48c-.55.32-.98.77-1.29,1.35s-.46,1.24-.46,1.98v.21c0,.77.17,1.45.51,2.03.34.58.81,1.04,1.42,1.37s1.31.49,2.09.49c.62,0,1.19-.11,1.72-.33.53-.22.99-.55,1.38-1l.77.89c-.45.54-1.01.95-1.68,1.23s-1.41.42-2.22.42Z"></path><path class="cls-6" d="M274.2,258.44c.82,0,1.54.16,2.17.47.62.31,1.11.79,1.46,1.43.35.64.53,1.45.53,2.42v5.87h-1.37v-5.74c0-1.07-.27-1.87-.8-2.42-.53-.54-1.28-.82-2.24-.82-.72,0-1.34.14-1.88.43-.53.29-.94.71-1.23,1.25-.29.55-.43,1.2-.43,1.97v5.31h-1.37v-10.1h1.31v2.77l-.21-.52c.32-.73.83-1.31,1.54-1.72.71-.42,1.55-.63,2.52-.63Z"></path><path class="cls-6" d="M284.77,268.73c-.83,0-1.62-.12-2.37-.36-.74-.24-1.33-.54-1.75-.9l.62-1.08c.41.31.94.57,1.58.8s1.31.34,2.02.34c.96,0,1.66-.15,2.08-.45.42-.3.63-.7.63-1.2,0-.37-.12-.66-.36-.88-.24-.21-.55-.37-.93-.48-.39-.11-.82-.2-1.29-.28-.47-.08-.95-.17-1.41-.27-.47-.1-.9-.25-1.28-.45-.38-.2-.7-.47-.93-.82s-.36-.81-.36-1.39.15-1.05.46-1.48c.31-.44.76-.78,1.36-1.03s1.32-.38,2.18-.38c.65,0,1.31.09,1.96.26.65.17,1.19.4,1.62.68l-.6,1.1c-.45-.31-.93-.53-1.44-.66-.51-.13-1.03-.2-1.54-.2-.91,0-1.58.16-2.01.47-.43.31-.65.71-.65,1.2,0,.39.12.69.36.91.24.22.55.39.94.51.39.12.82.22,1.29.3.47.08.94.17,1.41.28.47.11.9.26,1.29.44.39.19.71.45.94.79s.36.79.36,1.34c0,.59-.16,1.1-.49,1.53s-.8.76-1.42,1-1.38.36-2.26.36Z"></path><path class="cls-6" d="M292.14,256.3c-.28,0-.52-.1-.71-.29-.19-.19-.29-.42-.29-.69s.1-.5.29-.68c.19-.19.43-.28.71-.28s.52.09.71.27.29.4.29.67-.09.52-.28.71c-.19.19-.43.29-.72.29ZM291.45,268.64v-10.1h1.37v10.1h-1.37Z"></path><path class="cls-6" d="M300.74,268.73c-.98,0-1.85-.22-2.63-.66-.78-.44-1.39-1.05-1.84-1.83s-.67-1.67-.67-2.67.22-1.91.67-2.68c.45-.77,1.06-1.37,1.83-1.81.77-.44,1.65-.66,2.64-.66s1.89.22,2.67.66c.78.44,1.39,1.04,1.83,1.81.44.77.66,1.66.66,2.68s-.22,1.89-.66,2.67-1.06,1.39-1.84,1.83c-.78.44-1.67.66-2.66.66ZM300.74,267.52c.73,0,1.38-.16,1.94-.49s1.01-.79,1.34-1.39.49-1.29.49-2.07-.16-1.49-.49-2.08c-.33-.59-.77-1.05-1.34-1.38s-1.21-.49-1.92-.49-1.36.16-1.92.49c-.56.33-1.01.79-1.35,1.38-.33.59-.5,1.28-.5,2.08s.17,1.47.5,2.07c.33.6.78,1.06,1.35,1.39.56.33,1.2.49,1.91.49ZM299.49,256.96l2.64-2.39h1.83l-3.12,2.39h-1.35Z"></path><path class="cls-6" d="M313.85,258.44c.82,0,1.54.16,2.17.47.62.31,1.11.79,1.46,1.43.35.64.53,1.45.53,2.42v5.87h-1.37v-5.74c0-1.07-.27-1.87-.8-2.42-.53-.54-1.28-.82-2.24-.82-.72,0-1.34.14-1.88.43-.53.29-.94.71-1.23,1.25-.29.55-.43,1.2-.43,1.97v5.31h-1.37v-10.1h1.31v2.77l-.21-.52c.32-.73.83-1.31,1.54-1.72.71-.42,1.55-.63,2.52-.63Z"></path><path class="cls-6" d="M326.82,272.47c-.48,0-.93-.08-1.36-.23-.43-.15-.8-.38-1.11-.69l.63-1.02c.26.24.54.43.84.57.3.13.64.2,1.01.2.45,0,.84-.12,1.16-.38.33-.25.64-.69.93-1.32l.65-1.48.15-.21,4.16-9.37h1.35l-5.06,11.32c-.28.65-.59,1.17-.93,1.56-.34.38-.71.66-1.11.82-.4.16-.84.24-1.33.24ZM329.52,268.93l-4.66-10.39h1.42l4.12,9.28-.88,1.12Z"></path><path class="cls-6" d="M347.38,258.44c.82,0,1.54.16,2.17.47.62.31,1.11.79,1.46,1.43.35.64.53,1.45.53,2.42v5.87h-1.37v-5.74c0-1.07-.27-1.87-.8-2.42-.53-.54-1.28-.82-2.24-.82-.72,0-1.34.14-1.88.43-.53.29-.94.71-1.23,1.25-.29.55-.43,1.2-.43,1.97v5.31h-1.37v-10.1h1.31v2.77l-.21-.52c.32-.73.83-1.31,1.54-1.72.71-.42,1.55-.63,2.52-.63Z"></path><path class="cls-6" d="M359.52,268.73c-1.05,0-1.98-.22-2.77-.66-.8-.44-1.42-1.05-1.87-1.83s-.67-1.67-.67-2.67.21-1.89.64-2.66c.43-.77,1.02-1.38,1.77-1.82.75-.44,1.59-.66,2.53-.66s1.79.22,2.53.65c.74.43,1.32,1.03,1.74,1.81s.64,1.67.64,2.69c0,.06,0,.13,0,.2,0,.07,0,.14,0,.22h-8.8v-1.02h8.06l-.54.4c0-.73-.16-1.38-.47-1.95-.31-.57-.74-1.02-1.28-1.34-.54-.32-1.16-.48-1.87-.48s-1.32.16-1.87.48c-.55.32-.98.77-1.29,1.35s-.46,1.24-.46,1.98v.21c0,.77.17,1.45.51,2.03s.81,1.04,1.42,1.37c.61.33,1.31.49,2.09.49.62,0,1.19-.11,1.72-.33.53-.22.99-.55,1.38-1l.77.89c-.45.54-1.01.95-1.68,1.23s-1.41.42-2.22.42Z"></path><path class="cls-6" d="M371.05,268.73c-1,0-1.9-.22-2.69-.66-.79-.44-1.41-1.05-1.86-1.83-.45-.78-.67-1.67-.67-2.67s.22-1.91.67-2.68c.45-.77,1.07-1.37,1.86-1.81.79-.44,1.68-.66,2.69-.66.86,0,1.64.17,2.33.5.69.33,1.24.83,1.64,1.5l-1.02.69c-.35-.51-.78-.89-1.29-1.14-.51-.24-1.07-.37-1.67-.37-.72,0-1.37.16-1.94.49-.58.33-1.03.79-1.37,1.38-.33.59-.5,1.28-.5,2.08s.17,1.49.5,2.08c.33.59.79,1.05,1.37,1.38.58.33,1.22.49,1.94.49.6,0,1.16-.12,1.67-.37.51-.24.94-.62,1.29-1.12l1.02.69c-.4.65-.94,1.15-1.64,1.49-.69.34-1.47.51-2.33.51Z"></path><path class="cls-6" d="M381.81,268.73c-1.05,0-1.98-.22-2.77-.66-.8-.44-1.42-1.05-1.87-1.83-.45-.78-.67-1.67-.67-2.67s.21-1.89.64-2.66,1.02-1.38,1.77-1.82c.75-.44,1.59-.66,2.53-.66s1.79.22,2.53.65c.74.43,1.32,1.03,1.74,1.81s.63,1.67.63,2.69c0,.06,0,.13,0,.2,0,.07,0,.14,0,.22h-8.8v-1.02h8.06l-.54.4c0-.73-.16-1.38-.47-1.95-.31-.57-.74-1.02-1.28-1.34-.54-.32-1.16-.48-1.87-.48s-1.32.16-1.87.48c-.55.32-.98.77-1.29,1.35-.31.58-.46,1.24-.46,1.98v.21c0,.77.17,1.45.51,2.03s.81,1.04,1.42,1.37,1.31.49,2.09.49c.62,0,1.19-.11,1.72-.33.53-.22.99-.55,1.38-1l.77.89c-.45.54-1.01.95-1.68,1.23-.67.28-1.42.42-2.22.42Z"></path><path class="cls-6" d="M391.86,268.73c-.83,0-1.62-.12-2.37-.36-.75-.24-1.33-.54-1.75-.9l.62-1.08c.41.31.94.57,1.58.8s1.31.34,2.02.34c.96,0,1.66-.15,2.08-.45.42-.3.63-.7.63-1.2,0-.37-.12-.66-.36-.88-.24-.21-.55-.37-.93-.48-.38-.11-.82-.2-1.29-.28-.47-.08-.95-.17-1.41-.27-.47-.1-.9-.25-1.28-.45-.38-.2-.7-.47-.93-.82s-.36-.81-.36-1.39.15-1.05.46-1.48c.31-.44.76-.78,1.36-1.03s1.32-.38,2.18-.38c.65,0,1.31.09,1.96.26.66.17,1.19.4,1.62.68l-.6,1.1c-.45-.31-.93-.53-1.44-.66-.51-.13-1.03-.2-1.54-.2-.91,0-1.58.16-2.01.47-.43.31-.65.71-.65,1.2,0,.39.12.69.36.91.24.22.55.39.94.51.39.12.82.22,1.29.3.47.08.94.17,1.41.28.47.11.9.26,1.29.44.39.19.71.45.94.79s.36.79.36,1.34c0,.59-.16,1.1-.49,1.53s-.8.76-1.42,1c-.62.24-1.38.36-2.26.36Z"></path><path class="cls-6" d="M399.23,256.3c-.28,0-.52-.1-.71-.29-.19-.19-.29-.42-.29-.69s.1-.5.29-.68c.19-.19.43-.28.71-.28s.52.09.71.27.29.4.29.67-.09.52-.28.71c-.19.19-.43.29-.72.29ZM398.54,268.64v-10.1h1.37v10.1h-1.37Z"></path><path class="cls-6" d="M407.73,268.73c-.96,0-1.83-.22-2.59-.66-.76-.44-1.36-1.04-1.8-1.82-.44-.78-.65-1.67-.65-2.68s.22-1.92.65-2.7c.44-.77,1.04-1.37,1.8-1.8s1.63-.65,2.59-.65c.88,0,1.68.2,2.38.6.7.4,1.26.98,1.67,1.74s.62,1.7.62,2.8-.21,2.02-.62,2.79c-.41.77-.96,1.36-1.66,1.76s-1.5.61-2.4.61ZM407.83,267.52c.72,0,1.36-.16,1.93-.49s1.02-.79,1.35-1.39.49-1.29.49-2.07-.16-1.49-.49-2.08c-.33-.59-.78-1.05-1.35-1.38s-1.22-.49-1.93-.49-1.34.16-1.9.49c-.57.33-1.01.79-1.35,1.38-.33.59-.5,1.28-.5,2.08s.17,1.47.5,2.07c.33.6.78,1.06,1.35,1.39.56.33,1.2.49,1.9.49ZM411.64,268.64v-3.04l.13-2.04-.19-2.04v-7.16h1.37v14.28h-1.31Z"></path><path class="cls-6" d="M419.61,268.73c-.76,0-1.41-.13-1.97-.38s-.99-.6-1.28-1.04-.44-.95-.44-1.53c0-.53.12-1,.38-1.43s.66-.78,1.23-1.04c.57-.26,1.34-.39,2.3-.39h3.48v1.02h-3.45c-.97,0-1.65.17-2.03.52-.38.35-.57.78-.57,1.29,0,.58.22,1.04.67,1.39.45.35,1.08.52,1.89.52s1.43-.18,1.99-.53c.56-.35.96-.86,1.22-1.53l.31.94c-.26.67-.7,1.2-1.34,1.6-.64.4-1.43.6-2.4.6ZM423.09,268.64v-2.23l-.06-.37v-3.73c0-.86-.24-1.52-.72-1.98s-1.2-.69-2.15-.69c-.65,0-1.28.11-1.87.33-.59.22-1.09.51-1.5.87l-.62-1.02c.51-.44,1.13-.77,1.85-1.01s1.48-.36,2.27-.36c1.31,0,2.32.32,3.03.97.71.65,1.07,1.63,1.07,2.95v6.27h-1.31Z"></path><path class="cls-6" d="M432.14,268.73c-.96,0-1.83-.22-2.59-.66-.76-.44-1.36-1.04-1.8-1.82-.44-.78-.66-1.67-.66-2.68s.22-1.92.66-2.7c.44-.77,1.04-1.37,1.8-1.8.76-.43,1.63-.65,2.59-.65.89,0,1.68.2,2.38.6.7.4,1.26.98,1.67,1.74s.63,1.7.63,2.8-.21,2.02-.62,2.79c-.41.77-.97,1.36-1.67,1.76s-1.5.61-2.4.61ZM432.24,267.52c.72,0,1.36-.16,1.93-.49.57-.33,1.02-.79,1.35-1.39s.49-1.29.49-2.07-.16-1.49-.49-2.08c-.33-.59-.78-1.05-1.35-1.38-.57-.33-1.22-.49-1.93-.49s-1.34.16-1.91.49c-.57.33-1.01.79-1.35,1.38-.33.59-.5,1.28-.5,2.08s.17,1.47.5,2.07.78,1.06,1.35,1.39c.56.33,1.2.49,1.91.49ZM436.05,268.64v-3.04l.13-2.04-.19-2.04v-7.16h1.37v14.28h-1.31Z"></path><path class="cls-6" d="M445.46,268.73c-1.05,0-1.98-.22-2.77-.66-.79-.44-1.42-1.05-1.87-1.83-.45-.78-.67-1.67-.67-2.67s.21-1.89.64-2.66,1.02-1.38,1.77-1.82c.75-.44,1.59-.66,2.53-.66s1.79.22,2.53.65c.74.43,1.32,1.03,1.74,1.81.42.78.64,1.67.64,2.69,0,.06,0,.13,0,.2,0,.07,0,.14,0,.22h-8.8v-1.02h8.06l-.54.4c0-.73-.16-1.38-.47-1.95-.31-.57-.74-1.02-1.28-1.34-.54-.32-1.16-.48-1.87-.48s-1.32.16-1.87.48c-.55.32-.98.77-1.29,1.35-.31.58-.46,1.24-.46,1.98v.21c0,.77.17,1.45.51,2.03s.81,1.04,1.42,1.37c.61.33,1.3.49,2.09.49.62,0,1.19-.11,1.72-.33.53-.22.99-.55,1.38-1l.77.89c-.45.54-1.01.95-1.68,1.23-.67.28-1.42.42-2.22.42Z"></path><path class="cls-6" d="M455.5,268.73c-.83,0-1.62-.12-2.37-.36s-1.33-.54-1.75-.9l.62-1.08c.41.31.94.57,1.58.8s1.32.34,2.02.34c.96,0,1.66-.15,2.08-.45.42-.3.64-.7.64-1.2,0-.37-.12-.66-.36-.88s-.55-.37-.93-.48c-.38-.11-.82-.2-1.29-.28-.47-.08-.95-.17-1.41-.27s-.89-.25-1.28-.45c-.38-.2-.7-.47-.93-.82-.24-.35-.36-.81-.36-1.39s.15-1.05.46-1.48c.31-.44.76-.78,1.36-1.03s1.33-.38,2.18-.38c.65,0,1.31.09,1.96.26.66.17,1.19.4,1.62.68l-.6,1.1c-.45-.31-.93-.53-1.44-.66-.51-.13-1.03-.2-1.54-.2-.91,0-1.58.16-2.01.47-.43.31-.65.71-.65,1.2,0,.39.12.69.36.91.24.22.55.39.94.51s.82.22,1.29.3c.47.08.94.17,1.41.28.47.11.9.26,1.29.44.39.19.71.45.94.79s.36.79.36,1.34c0,.59-.16,1.1-.49,1.53s-.8.76-1.42,1c-.62.24-1.38.36-2.26.36Z"></path><path class="cls-6" d="M471.52,268.73c-1.05,0-1.98-.22-2.77-.66-.8-.44-1.42-1.05-1.87-1.83-.45-.78-.67-1.67-.67-2.67s.21-1.89.64-2.66,1.02-1.38,1.77-1.82c.75-.44,1.59-.66,2.53-.66s1.79.22,2.53.65c.74.43,1.32,1.03,1.74,1.81s.63,1.67.63,2.69c0,.06,0,.13,0,.2,0,.07,0,.14,0,.22h-8.8v-1.02h8.06l-.54.4c0-.73-.16-1.38-.47-1.95-.31-.57-.74-1.02-1.28-1.34-.54-.32-1.16-.48-1.87-.48s-1.32.16-1.87.48c-.55.32-.98.77-1.29,1.35-.31.58-.46,1.24-.46,1.98v.21c0,.77.17,1.45.51,2.03s.81,1.04,1.42,1.37,1.31.49,2.09.49c.62,0,1.19-.11,1.72-.33.53-.22.99-.55,1.38-1l.77.89c-.45.54-1.01.95-1.68,1.23-.67.28-1.42.42-2.22.42Z"></path><path class="cls-6" d="M481.56,268.73c-.83,0-1.62-.12-2.37-.36-.75-.24-1.33-.54-1.75-.9l.62-1.08c.41.31.94.57,1.58.8s1.31.34,2.02.34c.96,0,1.66-.15,2.08-.45.42-.3.63-.7.63-1.2,0-.37-.12-.66-.36-.88-.24-.21-.55-.37-.93-.48-.38-.11-.82-.2-1.29-.28-.47-.08-.95-.17-1.41-.27-.47-.1-.9-.25-1.28-.45-.38-.2-.7-.47-.93-.82s-.36-.81-.36-1.39.15-1.05.46-1.48c.31-.44.76-.78,1.36-1.03s1.32-.38,2.18-.38c.65,0,1.31.09,1.96.26.66.17,1.19.4,1.62.68l-.6,1.1c-.45-.31-.93-.53-1.44-.66-.51-.13-1.03-.2-1.54-.2-.91,0-1.58.16-2.01.47-.43.31-.65.71-.65,1.2,0,.39.12.69.36.91.24.22.55.39.94.51.39.12.82.22,1.29.3.47.08.94.17,1.41.28.47.11.9.26,1.29.44.39.19.71.45.94.79s.36.79.36,1.34c0,.59-.16,1.1-.49,1.53s-.8.76-1.42,1c-.62.24-1.38.36-2.26.36Z"></path><path class="cls-6" d="M488.24,272.37v-13.84h1.31v3.04l-.13,2.02.19,2.04v6.74h-1.37ZM493.46,268.73c-.87,0-1.66-.2-2.37-.61-.71-.4-1.27-.99-1.68-1.75-.42-.76-.62-1.7-.62-2.8s.21-2.04.62-2.8.97-1.34,1.67-1.74c.71-.4,1.5-.6,2.39-.6.96,0,1.83.22,2.59.65.76.43,1.36,1.03,1.8,1.81.44.78.65,1.67.65,2.69s-.22,1.92-.65,2.69c-.44.77-1.04,1.37-1.8,1.81-.76.44-1.63.66-2.59.66ZM493.36,267.52c.72,0,1.36-.16,1.92-.49s1.01-.79,1.35-1.39c.33-.6.5-1.29.5-2.07s-.17-1.47-.5-2.06c-.33-.59-.78-1.05-1.35-1.39s-1.21-.5-1.92-.5-1.36.17-1.93.5c-.57.33-1.02.8-1.35,1.39s-.49,1.28-.49,2.06.16,1.47.49,2.07.78,1.06,1.35,1.39c.57.33,1.21.49,1.93.49Z"></path><path class="cls-6" d="M505.58,268.73c-1.05,0-1.98-.22-2.77-.66-.8-.44-1.42-1.05-1.87-1.83s-.67-1.67-.67-2.67.21-1.89.65-2.66c.43-.77,1.02-1.38,1.77-1.82.75-.44,1.59-.66,2.53-.66s1.79.22,2.53.65,1.32,1.03,1.74,1.81c.42.78.63,1.67.63,2.69,0,.06,0,.13,0,.2,0,.07,0,.14,0,.22h-8.79v-1.02h8.06l-.54.4c0-.73-.16-1.38-.47-1.95-.31-.57-.74-1.02-1.28-1.34-.54-.32-1.16-.48-1.87-.48s-1.31.16-1.87.48c-.55.32-.98.77-1.29,1.35-.31.58-.46,1.24-.46,1.98v.21c0,.77.17,1.45.51,2.03.34.58.81,1.04,1.42,1.37s1.31.49,2.09.49c.62,0,1.19-.11,1.72-.33s.99-.55,1.38-1l.77.89c-.45.54-1.01.95-1.68,1.23-.67.28-1.41.42-2.22.42Z"></path><path class="cls-6" d="M517.11,268.73c-1,0-1.9-.22-2.68-.66-.79-.44-1.41-1.05-1.86-1.83s-.67-1.67-.67-2.67.22-1.91.67-2.68c.45-.77,1.07-1.37,1.86-1.81.79-.44,1.68-.66,2.68-.66.86,0,1.64.17,2.33.5.69.33,1.24.83,1.64,1.5l-1.02.69c-.35-.51-.78-.89-1.29-1.14s-1.07-.37-1.67-.37c-.72,0-1.37.16-1.94.49-.58.33-1.03.79-1.37,1.38-.33.59-.5,1.28-.5,2.08s.17,1.49.5,2.08c.33.59.79,1.05,1.37,1.38.58.33,1.22.49,1.94.49.6,0,1.16-.12,1.67-.37.51-.24.94-.62,1.29-1.12l1.02.69c-.4.65-.94,1.15-1.64,1.49-.69.34-1.47.51-2.33.51Z"></path><path class="cls-6" d="M523.19,256.96l2.64-2.39h1.83l-3.12,2.39h-1.35ZM523.75,268.64v-10.1h1.37v10.1h-1.37Z"></path><path class="cls-6" d="M527.35,259.67v-1.14h6.25v1.14h-6.25ZM529.16,268.64v-11.38c0-.9.26-1.62.79-2.17.53-.55,1.28-.83,2.27-.83.38,0,.76.05,1.12.15.36.1.66.26.9.48l-.46,1.02c-.19-.17-.42-.29-.67-.38-.26-.08-.53-.12-.83-.12-.58,0-1.02.16-1.33.48-.31.32-.46.8-.46,1.42v1.54l.04.63v9.14h-1.37ZM536.15,256.3c-.28,0-.52-.1-.71-.29-.19-.19-.29-.42-.29-.69s.1-.5.29-.68c.19-.19.43-.28.71-.28s.52.09.71.27.29.4.29.67-.09.52-.28.71c-.19.19-.43.29-.72.29ZM535.45,268.64v-10.1h1.37v10.1h-1.37Z"></path><path class="cls-6" d="M544.85,268.73c-1,0-1.9-.22-2.69-.66-.79-.44-1.41-1.05-1.86-1.83s-.67-1.67-.67-2.67.22-1.91.67-2.68c.45-.77,1.07-1.37,1.86-1.81.79-.44,1.68-.66,2.69-.66.86,0,1.64.17,2.33.5.69.33,1.24.83,1.64,1.5l-1.02.69c-.35-.51-.78-.89-1.29-1.14-.51-.24-1.07-.37-1.67-.37-.72,0-1.37.16-1.94.49s-1.03.79-1.37,1.38c-.33.59-.5,1.28-.5,2.08s.17,1.49.5,2.08c.33.59.79,1.05,1.37,1.38s1.23.49,1.94.49c.6,0,1.16-.12,1.67-.37.51-.24.94-.62,1.29-1.12l1.02.69c-.4.65-.94,1.15-1.64,1.49-.69.34-1.47.51-2.33.51Z"></path><path class="cls-6" d="M554.33,268.73c-.76,0-1.42-.13-1.97-.38-.56-.25-.99-.6-1.28-1.04-.3-.44-.44-.95-.44-1.53,0-.53.12-1,.38-1.43s.66-.78,1.23-1.04c.57-.26,1.34-.39,2.3-.39h3.48v1.02h-3.45c-.98,0-1.65.17-2.03.52-.38.35-.57.78-.57,1.29,0,.58.22,1.04.67,1.39.45.35,1.08.52,1.89.52s1.43-.18,1.99-.53c.56-.35.97-.86,1.22-1.53l.31.94c-.26.67-.7,1.2-1.34,1.6-.64.4-1.43.6-2.4.6ZM557.82,268.64v-2.23l-.06-.37v-3.73c0-.86-.24-1.52-.72-1.98s-1.2-.69-2.15-.69c-.65,0-1.28.11-1.87.33-.59.22-1.09.51-1.5.87l-.62-1.02c.51-.44,1.13-.77,1.85-1.01.72-.24,1.47-.36,2.27-.36,1.31,0,2.32.32,3.03.97.71.65,1.07,1.63,1.07,2.95v6.27h-1.31Z"></path><path class="cls-6" d="M565.56,268.73c-.83,0-1.62-.12-2.37-.36s-1.33-.54-1.75-.9l.62-1.08c.41.31.94.57,1.58.8s1.32.34,2.02.34c.96,0,1.66-.15,2.08-.45.42-.3.63-.7.63-1.2,0-.37-.12-.66-.36-.88-.24-.21-.55-.37-.93-.48-.39-.11-.82-.2-1.29-.28-.47-.08-.95-.17-1.41-.27-.47-.1-.9-.25-1.28-.45-.38-.2-.7-.47-.93-.82s-.36-.81-.36-1.39.15-1.05.46-1.48c.31-.44.76-.78,1.36-1.03s1.33-.38,2.18-.38c.65,0,1.31.09,1.96.26.65.17,1.19.4,1.62.68l-.6,1.1c-.45-.31-.93-.53-1.44-.66-.51-.13-1.03-.2-1.54-.2-.91,0-1.58.16-2.01.47s-.64.71-.64,1.2c0,.39.12.69.36.91.24.22.55.39.94.51.39.12.82.22,1.29.3.47.08.94.17,1.41.28.47.11.9.26,1.29.44.39.19.71.45.94.79s.36.79.36,1.34c0,.59-.16,1.1-.49,1.53s-.8.76-1.42,1c-.62.24-1.38.36-2.26.36Z"></path><path class="cls-6" d="M176.2,291.83c-.96,0-1.83-.22-2.59-.66-.76-.44-1.36-1.04-1.8-1.82s-.65-1.67-.65-2.68.22-1.92.65-2.7c.44-.77,1.04-1.37,1.8-1.8.76-.43,1.63-.65,2.59-.65.88,0,1.68.2,2.38.6.7.4,1.26.98,1.67,1.74.42.76.63,1.7.63,2.8s-.21,2.02-.62,2.79c-.41.77-.97,1.36-1.66,1.76-.7.4-1.5.61-2.4.61ZM176.3,290.62c.72,0,1.36-.16,1.93-.49.57-.33,1.02-.79,1.35-1.39.33-.6.49-1.29.49-2.07s-.16-1.49-.49-2.08c-.33-.59-.78-1.05-1.35-1.38-.57-.33-1.22-.49-1.93-.49s-1.34.16-1.91.49-1.01.79-1.35,1.38c-.33.59-.5,1.28-.5,2.08s.17,1.47.5,2.07.78,1.06,1.35,1.39,1.2.49,1.91.49ZM180.11,291.73v-3.04l.13-2.04-.19-2.04v-7.16h1.37v14.28h-1.31Z"></path><path class="cls-6" d="M189.52,291.83c-1.05,0-1.98-.22-2.77-.66-.8-.44-1.42-1.05-1.87-1.83s-.67-1.67-.67-2.67.21-1.89.65-2.66,1.02-1.38,1.77-1.82c.75-.44,1.59-.66,2.53-.66s1.79.22,2.53.65,1.32,1.03,1.74,1.81c.42.78.63,1.67.63,2.69,0,.06,0,.13,0,.2,0,.07,0,.14,0,.22h-8.8v-1.02h8.06l-.54.4c0-.73-.16-1.38-.47-1.95-.31-.57-.74-1.02-1.28-1.34-.54-.32-1.16-.48-1.87-.48s-1.32.16-1.87.48c-.55.32-.98.77-1.29,1.35-.31.58-.46,1.24-.46,1.98v.21c0,.77.17,1.45.51,2.03.34.58.81,1.04,1.42,1.37s1.31.49,2.09.49c.62,0,1.19-.11,1.72-.33s.99-.55,1.38-1l.77.89c-.45.54-1.01.95-1.68,1.23-.67.28-1.41.42-2.22.42Z"></path><path class="cls-6" d="M200.32,282.76v-1.14h6.25v1.14h-6.25ZM205.09,291.83c-.95,0-1.68-.26-2.19-.77-.51-.51-.77-1.24-.77-2.17v-9.49h1.37v9.41c0,.59.15,1.05.45,1.37.3.32.73.48,1.3.48.6,0,1.1-.17,1.5-.52l.48.98c-.27.24-.59.42-.97.54s-.77.17-1.16.17Z"></path><path class="cls-6" d="M213.88,291.83c-.86,0-1.61-.16-2.25-.48-.64-.32-1.14-.8-1.49-1.44-.35-.64-.53-1.44-.53-2.41v-5.87h1.37v5.72c0,1.08.27,1.89.8,2.44.53.54,1.28.82,2.24.82.71,0,1.32-.14,1.84-.43.52-.29.92-.71,1.19-1.26s.41-1.21.41-1.98v-5.29h1.37v10.1h-1.31v-2.77l.21.5c-.32.75-.82,1.33-1.49,1.74-.67.42-1.46.63-2.36.63Z"></path><path class="cls-6" d="M231.8,291.83c-.98,0-1.85-.22-2.63-.66-.78-.44-1.39-1.05-1.84-1.83-.45-.78-.67-1.67-.67-2.67s.22-1.91.67-2.68c.45-.77,1.06-1.37,1.83-1.81.77-.44,1.65-.66,2.64-.66s1.89.22,2.67.66c.78.44,1.39,1.04,1.83,1.81.44.77.66,1.66.66,2.68s-.22,1.89-.66,2.67c-.44.78-1.06,1.39-1.84,1.83-.78.44-1.67.66-2.66.66ZM231.8,290.62c.73,0,1.38-.16,1.94-.49s1.01-.79,1.34-1.39.49-1.29.49-2.07-.16-1.49-.49-2.08c-.33-.59-.77-1.05-1.34-1.38s-1.21-.49-1.92-.49-1.36.16-1.92.49c-.57.33-1.01.79-1.35,1.38-.33.59-.5,1.28-.5,2.08s.17,1.47.5,2.07c.33.6.78,1.06,1.35,1.39.56.33,1.2.49,1.91.49Z"></path><path class="cls-6" d="M239.75,291.73v-10.1h1.31v2.75l-.13-.48c.28-.77.76-1.36,1.42-1.76s1.49-.61,2.48-.61v1.33c-.05,0-.1,0-.15,0-.05,0-.1,0-.15,0-1.07,0-1.9.32-2.5.97-.6.65-.9,1.57-.9,2.76v5.16h-1.37Z"></path><path class="cls-6" d="M251.28,291.35c-.96,0-1.83-.21-2.6-.63-.77-.42-1.38-1-1.82-1.74-.44-.74-.66-1.6-.66-2.56s.22-1.81.66-2.55c.44-.74,1.05-1.31,1.82-1.72.77-.41,1.64-.62,2.6-.62.9,0,1.71.19,2.42.56s1.29.92,1.71,1.66c.42.73.64,1.62.64,2.67s-.21,1.94-.64,2.68c-.42.73-.99,1.29-1.71,1.67-.72.38-1.53.58-2.42.58ZM251.53,295.56c-.92,0-1.81-.13-2.66-.4-.85-.27-1.53-.65-2.06-1.15l.69-1.04c.47.42,1.06.76,1.76,1.01s1.44.38,2.22.38c1.28,0,2.23-.3,2.83-.89.6-.6.9-1.52.9-2.78v-2.52l.19-1.73-.13-1.73v-3.06h1.31v8.87c0,1.74-.43,3.02-1.28,3.84-.85.81-2.11,1.22-3.78,1.22ZM251.42,290.14c.74,0,1.4-.16,1.98-.47.58-.31,1.03-.75,1.37-1.31.33-.56.5-1.2.5-1.93s-.17-1.37-.5-1.92-.79-.99-1.37-1.3c-.58-.31-1.24-.47-1.98-.47s-1.39.16-1.97.47c-.58.31-1.04.75-1.37,1.3s-.49,1.19-.49,1.92.16,1.38.49,1.93c.33.56.78,1,1.37,1.31.58.31,1.24.47,1.97.47Z"></path><path class="cls-6" d="M263.25,291.83c-.76,0-1.41-.13-1.97-.38s-.98-.6-1.28-1.04c-.3-.44-.44-.95-.44-1.53,0-.53.12-1,.38-1.43.25-.43.66-.78,1.23-1.04.57-.26,1.34-.39,2.3-.39h3.48v1.02h-3.44c-.98,0-1.65.17-2.03.52s-.57.78-.57,1.29c0,.58.22,1.04.67,1.39.45.35,1.08.52,1.89.52s1.43-.18,1.99-.53c.56-.35.97-.86,1.22-1.53l.31.94c-.26.67-.7,1.2-1.34,1.6-.63.4-1.43.6-2.4.6ZM266.74,291.73v-2.23l-.06-.37v-3.73c0-.86-.24-1.52-.72-1.98s-1.2-.69-2.15-.69c-.65,0-1.28.11-1.87.33-.59.22-1.09.51-1.5.87l-.62-1.02c.51-.44,1.13-.77,1.85-1.01.72-.24,1.48-.36,2.27-.36,1.31,0,2.32.32,3.03.97.71.65,1.07,1.63,1.07,2.95v6.27h-1.31Z"></path><path class="cls-6" d="M276.92,281.53c.82,0,1.54.16,2.17.47.62.31,1.11.79,1.46,1.43s.53,1.45.53,2.42v5.87h-1.37v-5.74c0-1.07-.27-1.87-.8-2.42-.53-.54-1.28-.82-2.24-.82-.72,0-1.34.14-1.88.43-.53.29-.94.71-1.23,1.25-.29.55-.43,1.2-.43,1.97v5.31h-1.37v-10.1h1.31v2.77l-.21-.52c.32-.73.83-1.31,1.54-1.72.71-.42,1.55-.63,2.52-.63Z"></path><path class="cls-6" d="M285.46,279.4c-.28,0-.52-.1-.71-.29s-.29-.42-.29-.69.1-.5.29-.68c.19-.19.43-.28.71-.28s.52.09.71.27c.19.18.29.4.29.67s-.09.52-.28.71-.43.29-.72.29ZM284.77,291.73v-10.1h1.37v10.1h-1.37Z"></path><path class="cls-6" d="M288.85,291.73v-.9l6.74-8.53.29.46h-6.91v-1.14h7.99v.89l-6.72,8.54-.35-.46h7.2v1.14h-8.24Z"></path><path class="cls-6" d="M302.63,291.83c-.76,0-1.42-.13-1.97-.38-.56-.25-.99-.6-1.28-1.04-.3-.44-.44-.95-.44-1.53,0-.53.12-1,.38-1.43s.66-.78,1.23-1.04c.57-.26,1.34-.39,2.3-.39h3.48v1.02h-3.45c-.98,0-1.65.17-2.03.52-.38.35-.57.78-.57,1.29,0,.58.22,1.04.67,1.39.45.35,1.08.52,1.89.52s1.43-.18,1.99-.53.97-.86,1.22-1.53l.31.94c-.26.67-.7,1.2-1.34,1.6-.64.4-1.43.6-2.4.6ZM306.11,291.73v-2.23l-.06-.37v-3.73c0-.86-.24-1.52-.72-1.98-.48-.46-1.2-.69-2.15-.69-.65,0-1.28.11-1.87.33-.59.22-1.09.51-1.5.87l-.62-1.02c.51-.44,1.13-.77,1.85-1.01.72-.24,1.48-.36,2.27-.36,1.31,0,2.32.32,3.03.97.71.65,1.07,1.63,1.07,2.95v6.27h-1.31Z"></path><path class="cls-6" d="M315.33,291.83c-1,0-1.9-.22-2.68-.66-.79-.44-1.41-1.05-1.86-1.83s-.67-1.67-.67-2.67.22-1.91.67-2.68c.45-.77,1.07-1.37,1.86-1.81.79-.44,1.68-.66,2.68-.66.86,0,1.64.17,2.33.5s1.24.83,1.64,1.5l-1.02.69c-.35-.51-.78-.89-1.29-1.14-.51-.24-1.07-.37-1.67-.37-.72,0-1.37.16-1.94.49s-1.03.79-1.37,1.38c-.33.59-.5,1.28-.5,2.08s.17,1.49.5,2.08c.33.59.79,1.05,1.37,1.38s1.23.49,1.94.49c.6,0,1.16-.12,1.67-.37.51-.24.94-.62,1.29-1.12l1.02.69c-.4.65-.94,1.15-1.64,1.49-.69.34-1.47.51-2.33.51Z"></path><path class="cls-6" d="M322.51,279.4c-.28,0-.52-.1-.71-.29s-.29-.42-.29-.69.1-.5.29-.68c.19-.19.43-.28.71-.28s.52.09.71.27c.19.18.29.4.29.67s-.09.52-.28.71-.43.29-.72.29ZM321.82,291.73v-10.1h1.37v10.1h-1.37Z"></path><path class="cls-6" d="M331.11,291.83c-.98,0-1.85-.22-2.63-.66-.78-.44-1.39-1.05-1.84-1.83-.45-.78-.67-1.67-.67-2.67s.22-1.91.67-2.68c.45-.77,1.06-1.37,1.83-1.81.77-.44,1.65-.66,2.64-.66s1.89.22,2.67.66c.78.44,1.39,1.04,1.83,1.81.44.77.66,1.66.66,2.68s-.22,1.89-.66,2.67-1.06,1.39-1.84,1.83c-.78.44-1.67.66-2.66.66ZM331.11,290.62c.73,0,1.38-.16,1.94-.49.56-.33,1.01-.79,1.34-1.39.33-.6.49-1.29.49-2.07s-.16-1.49-.49-2.08c-.33-.59-.77-1.05-1.34-1.38-.56-.33-1.21-.49-1.92-.49s-1.36.16-1.92.49c-.56.33-1.01.79-1.35,1.38-.33.59-.5,1.28-.5,2.08s.17,1.47.5,2.07c.33.6.78,1.06,1.35,1.39.56.33,1.2.49,1.91.49ZM329.86,280.05l2.64-2.39h1.83l-3.12,2.39h-1.35Z"></path><path class="cls-6" d="M344.22,281.53c.82,0,1.54.16,2.17.47.62.31,1.11.79,1.46,1.43s.53,1.45.53,2.42v5.87h-1.37v-5.74c0-1.07-.27-1.87-.8-2.42-.53-.54-1.28-.82-2.24-.82-.72,0-1.34.14-1.88.43-.53.29-.94.71-1.23,1.25-.29.55-.43,1.2-.43,1.97v5.31h-1.37v-10.1h1.31v2.77l-.21-.52c.32-.73.83-1.31,1.54-1.72.71-.42,1.55-.63,2.52-.63Z"></path><path class="cls-6" d="M351.25,294.54l.85-3.56.15.83c-.3,0-.54-.1-.74-.29-.2-.19-.3-.44-.3-.75s.1-.56.3-.75c.2-.19.44-.29.72-.29s.54.1.72.31.28.45.28.73c0,.1,0,.21-.02.31-.01.1-.04.22-.08.35-.04.13-.09.28-.15.46l-.81,2.66h-.92Z"></path><path class="cls-6" d="M364.05,291.83c-.76,0-1.41-.13-1.97-.38-.56-.25-.99-.6-1.28-1.04s-.44-.95-.44-1.53c0-.53.12-1,.38-1.43.25-.43.66-.78,1.23-1.04.57-.26,1.34-.39,2.3-.39h3.48v1.02h-3.45c-.98,0-1.65.17-2.03.52-.38.35-.57.78-.57,1.29,0,.58.22,1.04.67,1.39.45.35,1.08.52,1.89.52s1.43-.18,1.99-.53c.56-.35.96-.86,1.22-1.53l.31.94c-.26.67-.7,1.2-1.34,1.6-.64.4-1.43.6-2.4.6ZM367.53,291.73v-2.23l-.06-.37v-3.73c0-.86-.24-1.52-.72-1.98s-1.2-.69-2.15-.69c-.65,0-1.28.11-1.87.33-.59.22-1.09.51-1.5.87l-.62-1.02c.51-.44,1.13-.77,1.85-1.01.72-.24,1.48-.36,2.27-.36,1.31,0,2.32.32,3.03.97.71.65,1.07,1.63,1.07,2.95v6.27h-1.31Z"></path><path class="cls-6" d="M375.27,291.83c-.83,0-1.62-.12-2.37-.36s-1.33-.54-1.75-.9l.62-1.08c.41.31.94.57,1.58.8s1.32.34,2.02.34c.96,0,1.66-.15,2.08-.45.42-.3.64-.7.64-1.2,0-.37-.12-.66-.36-.88s-.55-.37-.93-.48c-.38-.11-.82-.2-1.29-.28-.47-.08-.95-.17-1.41-.27s-.89-.25-1.28-.45c-.38-.2-.7-.47-.93-.82-.24-.35-.36-.81-.36-1.39s.15-1.05.46-1.48c.31-.44.76-.78,1.36-1.03s1.33-.38,2.18-.38c.65,0,1.31.09,1.96.26.66.17,1.19.4,1.62.68l-.6,1.1c-.45-.31-.93-.53-1.44-.66-.51-.13-1.03-.2-1.54-.2-.91,0-1.58.16-2.01.47-.43.31-.65.71-.65,1.2,0,.39.12.69.36.91.24.22.55.39.94.51s.82.22,1.29.3c.47.08.94.17,1.41.28.47.11.9.26,1.29.44.39.19.71.45.94.79s.36.79.36,1.34c0,.59-.16,1.1-.49,1.53s-.8.76-1.42,1c-.62.24-1.38.36-2.26.36Z"></path><path class="cls-6" d="M381.39,280.05l2.64-2.39h1.83l-3.12,2.39h-1.35ZM381.94,291.73v-10.1h1.37v10.1h-1.37Z"></path><path class="cls-6" d="M396.36,291.83c-1,0-1.9-.22-2.68-.66-.79-.44-1.41-1.05-1.86-1.83s-.67-1.67-.67-2.67.22-1.91.67-2.68c.45-.77,1.07-1.37,1.86-1.81.79-.44,1.68-.66,2.68-.66.86,0,1.64.17,2.33.5.69.33,1.24.83,1.64,1.5l-1.02.69c-.35-.51-.78-.89-1.29-1.14s-1.07-.37-1.67-.37c-.72,0-1.37.16-1.94.49-.58.33-1.03.79-1.37,1.38-.33.59-.5,1.28-.5,2.08s.17,1.49.5,2.08c.33.59.79,1.05,1.37,1.38.58.33,1.22.49,1.94.49.6,0,1.16-.12,1.67-.37.51-.24.94-.62,1.29-1.12l1.02.69c-.4.65-.94,1.15-1.64,1.49-.69.34-1.47.51-2.33.51Z"></path><path class="cls-6" d="M406.95,291.83c-.98,0-1.85-.22-2.63-.66-.78-.44-1.39-1.05-1.84-1.83-.45-.78-.67-1.67-.67-2.67s.22-1.91.67-2.68c.45-.77,1.06-1.37,1.83-1.81.77-.44,1.65-.66,2.64-.66s1.89.22,2.67.66c.78.44,1.38,1.04,1.83,1.81.44.77.66,1.66.66,2.68s-.22,1.89-.66,2.67c-.44.78-1.06,1.39-1.84,1.83-.78.44-1.67.66-2.66.66ZM406.95,290.62c.73,0,1.38-.16,1.94-.49s1.01-.79,1.34-1.39.49-1.29.49-2.07-.16-1.49-.49-2.08c-.33-.59-.77-1.05-1.34-1.38s-1.21-.49-1.92-.49-1.36.16-1.92.49c-.57.33-1.01.79-1.35,1.38-.33.59-.5,1.28-.5,2.08s.17,1.47.5,2.07c.33.6.78,1.06,1.35,1.39.56.33,1.2.49,1.91.49Z"></path><path class="cls-6" d="M427.52,281.53c.82,0,1.54.16,2.15.47.61.31,1.08.79,1.42,1.43s.51,1.45.51,2.42v5.87h-1.37v-5.74c0-1.07-.25-1.87-.76-2.42-.51-.54-1.22-.82-2.15-.82-.69,0-1.29.14-1.8.43-.51.29-.9.71-1.17,1.25-.28.55-.41,1.2-.41,1.97v5.31h-1.37v-5.74c0-1.07-.26-1.87-.77-2.42-.51-.54-1.23-.82-2.16-.82-.68,0-1.28.14-1.79.43-.51.29-.91.71-1.18,1.25-.28.55-.41,1.2-.41,1.97v5.31h-1.37v-10.1h1.31v2.73l-.21-.48c.31-.73.8-1.31,1.49-1.72s1.5-.63,2.43-.63c.99,0,1.83.25,2.52.74.69.49,1.14,1.24,1.35,2.22l-.54-.21c.29-.82.82-1.49,1.57-1.99s1.65-.76,2.7-.76Z"></path><path class="cls-6" d="M439.43,291.83c-.98,0-1.85-.22-2.63-.66-.78-.44-1.39-1.05-1.84-1.83s-.67-1.67-.67-2.67.22-1.91.67-2.68c.45-.77,1.06-1.37,1.83-1.81.77-.44,1.65-.66,2.64-.66s1.89.22,2.67.66c.78.44,1.39,1.04,1.83,1.81.44.77.66,1.66.66,2.68s-.22,1.89-.66,2.67c-.44.78-1.06,1.39-1.84,1.83-.78.44-1.67.66-2.66.66ZM439.43,290.62c.73,0,1.38-.16,1.94-.49s1.01-.79,1.34-1.39.49-1.29.49-2.07-.16-1.49-.49-2.08c-.33-.59-.77-1.05-1.34-1.38s-1.21-.49-1.92-.49-1.36.16-1.92.49-1.01.79-1.35,1.38c-.33.59-.5,1.28-.5,2.08s.17,1.47.5,2.07c.33.6.78,1.06,1.35,1.39s1.2.49,1.91.49Z"></path><path class="cls-6" d="M455.14,291.83c-.83,0-1.62-.12-2.37-.36-.75-.24-1.33-.54-1.75-.9l.62-1.08c.41.31.94.57,1.58.8s1.31.34,2.02.34c.96,0,1.66-.15,2.08-.45.42-.3.64-.7.64-1.2,0-.37-.12-.66-.36-.88s-.55-.37-.93-.48c-.38-.11-.81-.2-1.29-.28-.47-.08-.95-.17-1.41-.27-.47-.1-.9-.25-1.28-.45-.38-.2-.7-.47-.93-.82s-.36-.81-.36-1.39.15-1.05.46-1.48c.31-.44.76-.78,1.36-1.03s1.32-.38,2.18-.38c.65,0,1.31.09,1.96.26.65.17,1.19.4,1.62.68l-.6,1.1c-.45-.31-.93-.53-1.44-.66-.51-.13-1.03-.2-1.54-.2-.91,0-1.58.16-2.01.47s-.64.71-.64,1.2c0,.39.12.69.36.91.24.22.55.39.94.51s.82.22,1.29.3c.47.08.94.17,1.41.28.47.11.9.26,1.29.44.39.19.71.45.94.79.24.34.36.79.36,1.34,0,.59-.16,1.1-.49,1.53s-.8.76-1.42,1-1.38.36-2.26.36Z"></path><path class="cls-6" d="M465.99,291.83c-.86,0-1.61-.16-2.25-.48s-1.14-.8-1.49-1.44c-.35-.64-.53-1.44-.53-2.41v-5.87h1.37v5.72c0,1.08.27,1.89.8,2.44.53.54,1.28.82,2.24.82.71,0,1.32-.14,1.84-.43.52-.29.92-.71,1.19-1.26s.41-1.21.41-1.98v-5.29h1.37v10.1h-1.31v-2.77l.21.5c-.32.75-.82,1.33-1.49,1.74-.67.42-1.46.63-2.36.63Z"></path><path class="cls-6" d="M483.99,291.83c-1,0-1.9-.22-2.68-.66-.79-.44-1.41-1.05-1.86-1.83s-.67-1.67-.67-2.67.22-1.91.67-2.68c.45-.77,1.07-1.37,1.86-1.81.79-.44,1.68-.66,2.68-.66.86,0,1.64.17,2.33.5s1.24.83,1.64,1.5l-1.02.69c-.35-.51-.78-.89-1.29-1.14-.51-.24-1.07-.37-1.67-.37-.72,0-1.37.16-1.94.49s-1.03.79-1.37,1.38c-.33.59-.5,1.28-.5,2.08s.17,1.49.5,2.08c.33.59.79,1.05,1.37,1.38s1.23.49,1.94.49c.6,0,1.16-.12,1.67-.37.51-.24.94-.62,1.29-1.12l1.02.69c-.4.65-.94,1.15-1.64,1.49-.69.34-1.47.51-2.33.51Z"></path><path class="cls-6" d="M494.81,291.83c-.86,0-1.61-.16-2.25-.48s-1.14-.8-1.49-1.44-.53-1.44-.53-2.41v-5.87h1.37v5.72c0,1.08.27,1.89.8,2.44.53.54,1.28.82,2.24.82.71,0,1.32-.14,1.84-.43.52-.29.92-.71,1.19-1.26.28-.55.41-1.21.41-1.98v-5.29h1.37v10.1h-1.31v-2.77l.21.5c-.32.75-.82,1.33-1.49,1.74-.67.42-1.46.63-2.36.63Z"></path><path class="cls-6" d="M503.56,291.73v-14.28h1.37v14.28h-1.37Z"></path><path class="cls-6" d="M507.2,282.76v-1.14h6.26v1.14h-6.26ZM511.97,291.83c-.95,0-1.68-.26-2.19-.77-.51-.51-.77-1.24-.77-2.17v-9.49h1.37v9.41c0,.59.15,1.05.45,1.37.3.32.73.48,1.3.48.6,0,1.1-.17,1.5-.52l.48.98c-.27.24-.59.42-.97.54-.38.12-.77.17-1.17.17Z"></path><path class="cls-6" d="M520.77,291.83c-.86,0-1.61-.16-2.25-.48s-1.14-.8-1.49-1.44c-.35-.64-.53-1.44-.53-2.41v-5.87h1.37v5.72c0,1.08.27,1.89.8,2.44.53.54,1.28.82,2.24.82.71,0,1.32-.14,1.84-.43.52-.29.92-.71,1.19-1.26.28-.55.41-1.21.41-1.98v-5.29h1.37v10.1h-1.31v-2.77l.21.5c-.32.75-.82,1.33-1.49,1.74-.67.42-1.46.63-2.36.63Z"></path><path class="cls-6" d="M529.53,291.73v-10.1h1.31v2.75l-.13-.48c.28-.77.76-1.36,1.42-1.76s1.49-.61,2.48-.61v1.33c-.05,0-.1,0-.15,0-.05,0-.1,0-.15,0-1.07,0-1.9.32-2.5.97-.6.65-.9,1.57-.9,2.76v5.16h-1.37Z"></path><path class="cls-6" d="M539.19,291.83c-.76,0-1.42-.13-1.97-.38-.56-.25-.99-.6-1.28-1.04-.3-.44-.44-.95-.44-1.53,0-.53.12-1,.38-1.43s.66-.78,1.23-1.04c.57-.26,1.34-.39,2.3-.39h3.48v1.02h-3.45c-.98,0-1.65.17-2.03.52-.38.35-.57.78-.57,1.29,0,.58.22,1.04.67,1.39.45.35,1.08.52,1.89.52s1.43-.18,1.99-.53.97-.86,1.22-1.53l.31.94c-.26.67-.7,1.2-1.34,1.6-.63.4-1.43.6-2.4.6ZM542.67,291.73v-2.23l-.06-.37v-3.73c0-.86-.24-1.52-.72-1.98-.48-.46-1.2-.69-2.15-.69-.65,0-1.28.11-1.87.33-.59.22-1.09.51-1.5.87l-.62-1.02c.51-.44,1.13-.77,1.85-1.01.72-.24,1.47-.36,2.27-.36,1.31,0,2.32.32,3.03.97.71.65,1.07,1.63,1.07,2.95v6.27h-1.31Z"></path><path class="cls-6" d="M172.18,314.83v-14.28h1.37v14.28h-1.37Z"></path><path class="cls-6" d="M180.2,314.93c-.76,0-1.41-.13-1.97-.38-.56-.25-.99-.6-1.28-1.04s-.44-.95-.44-1.53c0-.53.12-1,.38-1.43.25-.43.66-.78,1.23-1.04.57-.26,1.34-.39,2.3-.39h3.48v1.02h-3.45c-.98,0-1.65.17-2.03.52-.38.35-.57.78-.57,1.29,0,.58.22,1.04.67,1.39.45.35,1.08.52,1.89.52s1.43-.18,1.99-.53c.56-.35.96-.86,1.22-1.53l.31.94c-.26.67-.7,1.2-1.34,1.6-.64.4-1.43.6-2.4.6ZM183.69,314.83v-2.23l-.06-.37v-3.73c0-.86-.24-1.52-.72-1.98s-1.2-.69-2.15-.69c-.65,0-1.28.11-1.87.33-.59.22-1.09.51-1.5.87l-.62-1.02c.51-.44,1.13-.77,1.85-1.01.72-.24,1.48-.36,2.27-.36,1.31,0,2.32.32,3.03.97.71.65,1.07,1.63,1.07,2.95v6.27h-1.31Z"></path><path class="cls-6" d="M188.71,314.83v-14.28h1.37v7.16l-.19,2.04.13,2.04v3.04h-1.31ZM193.93,314.93c-.89,0-1.68-.2-2.39-.61-.71-.4-1.26-.99-1.67-1.76-.41-.77-.62-1.7-.62-2.79s.21-2.04.63-2.8c.42-.76.98-1.34,1.68-1.74.71-.4,1.49-.6,2.37-.6.96,0,1.83.22,2.59.65.76.43,1.36,1.03,1.8,1.8.44.77.65,1.67.65,2.7s-.22,1.91-.65,2.68c-.44.78-1.04,1.38-1.8,1.82-.76.44-1.63.66-2.59.66ZM193.83,313.71c.72,0,1.36-.16,1.92-.49.56-.33,1.01-.79,1.35-1.39.33-.6.5-1.29.5-2.07s-.17-1.49-.5-2.08c-.33-.59-.78-1.05-1.35-1.38-.56-.33-1.21-.49-1.92-.49s-1.36.16-1.93.49c-.57.33-1.02.79-1.35,1.38-.33.59-.49,1.28-.49,2.08s.16,1.47.49,2.07.78,1.06,1.35,1.39c.57.33,1.22.49,1.93.49Z"></path><path class="cls-6" d="M205.88,314.93c-.98,0-1.85-.22-2.63-.66-.78-.44-1.39-1.05-1.84-1.83-.45-.78-.67-1.67-.67-2.67s.22-1.91.67-2.68c.45-.77,1.06-1.37,1.83-1.81.77-.44,1.65-.66,2.64-.66s1.89.22,2.67.66c.78.44,1.39,1.04,1.83,1.81.44.77.66,1.66.66,2.68s-.22,1.89-.66,2.67-1.06,1.39-1.84,1.83c-.78.44-1.67.66-2.66.66ZM205.88,313.71c.73,0,1.38-.16,1.94-.49.56-.33,1.01-.79,1.34-1.39.33-.6.49-1.29.49-2.07s-.16-1.49-.49-2.08c-.33-.59-.77-1.05-1.34-1.38-.56-.33-1.21-.49-1.92-.49s-1.36.16-1.92.49c-.56.33-1.01.79-1.35,1.38-.33.59-.5,1.28-.5,2.08s.17,1.47.5,2.07c.33.6.78,1.06,1.35,1.39.56.33,1.2.49,1.91.49Z"></path><path class="cls-6" d="M213.83,314.83v-10.1h1.31v2.75l-.13-.48c.28-.77.76-1.36,1.42-1.76s1.5-.61,2.48-.61v1.33c-.05,0-.1,0-.15,0-.05,0-.1,0-.15,0-1.06,0-1.9.32-2.5.97-.6.65-.9,1.57-.9,2.76v5.16h-1.37Z"></path><path class="cls-6" d="M223.49,314.93c-.76,0-1.41-.13-1.97-.38-.56-.25-.99-.6-1.28-1.04s-.44-.95-.44-1.53c0-.53.12-1,.38-1.43.25-.43.66-.78,1.23-1.04.57-.26,1.34-.39,2.3-.39h3.48v1.02h-3.45c-.98,0-1.65.17-2.03.52-.38.35-.57.78-.57,1.29,0,.58.22,1.04.67,1.39.45.35,1.08.52,1.89.52s1.43-.18,1.99-.53c.56-.35.96-.86,1.22-1.53l.31.94c-.26.67-.7,1.2-1.34,1.6-.64.4-1.43.6-2.4.6ZM226.97,314.83v-2.23l-.06-.37v-3.73c0-.86-.24-1.52-.72-1.98s-1.2-.69-2.15-.69c-.65,0-1.28.11-1.87.33-.59.22-1.09.51-1.5.87l-.62-1.02c.51-.44,1.13-.77,1.85-1.01.72-.24,1.48-.36,2.27-.36,1.31,0,2.32.32,3.03.97.71.65,1.07,1.63,1.07,2.95v6.27h-1.31Z"></path><path class="cls-6" d="M232,314.83v-14.28h1.37v14.28h-1.37Z"></path><path class="cls-6" d="M237.31,314.93c-.28,0-.52-.1-.72-.31-.2-.21-.3-.46-.3-.75s.1-.56.3-.75.44-.29.72-.29.52.1.72.29c.2.19.3.44.3.75s-.1.54-.3.75c-.2.21-.44.31-.72.31Z"></path></g></svg>