<svg id="Capa_1" data-name="Capa 1" xmlns="http://www.w3.org/2000/svg" viewBox="0 0 117.91 29.57"><defs><style>.cls-1{fill:#fff;fill-rule:evenodd;}</style></defs><title>logo_Sacyr_blanco</title><g id="logo_Sacyr_blanco" data-name="logo Sacyr blanco"><path id="Fill-1" class="cls-1" d="M102.35,25.62h6.11V12.36a6,6,0,0,0-6-6h-.08Z"/><polygon id="Fill-3" class="cls-1" points="81.97 29.57 88.28 29.57 99.24 0.64 92.93 0.64 81.97 29.57"/><path id="Fill-6" class="cls-1" d="M14.52,10.76c-1.73-.27-7.71-1.09-8.89-1.27,0,.31,0,1.94,0,1.94A3.62,3.62,0,0,0,8.66,15l4.62.68a2.62,2.62,0,0,1,2.48,2.63c0,2.72-3,3.15-5.06,3.15a5.51,5.51,0,0,1-3.77-1.1,4,4,0,0,1-1.34-2.91H0a8.2,8.2,0,0,0,2.63,5.78,11.32,11.32,0,0,0,8,2.87c3.39,0,6.5-.86,8.5-2.87a7.4,7.4,0,0,0,2.15-5.45c0-3.91-2.86-6.4-6.78-7"/><path id="Fill-8" class="cls-1" d="M40.55,10h2.26a3.24,3.24,0,0,0,3.13-4.11c-.08-.27-.17-.55-.27-.81C44.23,1.35,40.6,0,36.35,0,30.81,0,26.37,2.5,26,8.09h5.78c.15-2.3,1.77-3.54,4.54-3.54,3.39,0,4.2,1.58,4.2,3.92"/><path id="Fill-10" class="cls-1" d="M102.35,6.33h15.56V.64h-9.86a5.7,5.7,0,0,0-5.7,5.69"/><path id="Fill-13" class="cls-1" d="M86.78,16.85,80.39.64H74l5.13,13a5,5,0,0,0,4.7,3.2Z"/><path id="Fill-15" class="cls-1" d="M40.55,15v.22c0,3.67-2.38,5.84-6.35,5.84a3.3,3.3,0,0,1-3.53-3.27,2.4,2.4,0,0,1,1.23-2.15,5.35,5.35,0,0,1,3-.64h5.62V10H33.87a10.87,10.87,0,0,0-2.34.3c-3.88.9-6.69,3.87-6.69,8s3.06,7.79,9,7.79a9.3,9.3,0,0,0,6.73-2.65v2.17H46V15Z"/><path id="Fill-17" class="cls-1" d="M18.58,2.93C16.49.67,13.22-.11,10.24,0S4,1.2,2.13,3.68A6.93,6.93,0,0,0,1,6.11a10.44,10.44,0,0,0-.35,2.6l5,.78s.07-.56.08-.69.08-.48.14-.72a5.53,5.53,0,0,1,.49-1.36,3.92,3.92,0,0,1,2-1.83,6.07,6.07,0,0,1,2.7-.36,5.32,5.32,0,0,1,2.58.83,3.38,3.38,0,0,1,1.43,2.51V8h5.68a8,8,0,0,0-2.2-5.11"/><path id="Fill-19" class="cls-1" d="M56.53,10c-3.81,0-6.41,2.85-6,6.21,0,.15,0,.39.06.42A12.25,12.25,0,0,0,53,22.08,11.3,11.3,0,0,0,61.62,26a10.86,10.86,0,0,0,8.5-3.92A9.64,9.64,0,0,0,72,16.69H66.16A4.77,4.77,0,0,1,65.44,19a4.33,4.33,0,0,1-3.82,1.86A4.88,4.88,0,0,1,58,19.27c-1.43-1.58-1.67-3.92-1.67-6.26a17.57,17.57,0,0,1,.21-3"/><path id="Fill-21" class="cls-1" d="M58,6.7a4.85,4.85,0,0,1,3.63-1.53A4.33,4.33,0,0,1,65.44,7a4.73,4.73,0,0,1,.72,2.29H72a9.73,9.73,0,0,0-1.92-5.4A10.85,10.85,0,0,0,61.62,0,11.33,11.33,0,0,0,53,3.93,12.74,12.74,0,0,0,50.47,10h6.06A6.46,6.46,0,0,1,58,6.7"/></g></svg>