<svg xmlns="http://www.w3.org/2000/svg" width="15" height="17.493" viewBox="0 0 15 17.493">
  <path id="Path_280" data-name="Path 280" d="M-5.25-9.512a1.079,1.079,0,0,0-1.074-1.074A1.165,1.165,0,0,0-7.5-9.512v4.523A1.166,1.166,0,0,0-6.324-3.906,1.07,1.07,0,0,0-5.25-4.988Zm.422,6.133A1.154,1.154,0,0,0-3.672-2.223h.777L-2.883.164a1.078,1.078,0,0,0,2.156,0V-2.223H.727V.164a1.084,1.084,0,0,0,2.168,0V-2.223h.789A1.152,1.152,0,0,0,4.832-3.379v-7.008h-9.66Zm9.687-7.387a4.4,4.4,0,0,0-2.473-3.883l.746-1.375a.151.151,0,1,0-.262-.148l-.754,1.387a5.278,5.278,0,0,0-4.23,0l-.758-1.391a.15.15,0,1,0-.262.148l.746,1.379a4.39,4.39,0,0,0-2.484,3.883Zm-6.668-2.168a.41.41,0,0,1-.41.41.408.408,0,0,1-.4-.41.405.405,0,0,1,.4-.41A.41.41,0,0,1-1.809-12.934Zm4.43,0a.408.408,0,0,1-.4.41.41.41,0,0,1-.41-.41.41.41,0,0,1,.41-.41A.408.408,0,0,1,2.621-12.934Zm3.7,2.348A1.071,1.071,0,0,0,5.25-9.512v4.523A1.078,1.078,0,0,0,6.324-3.906,1.163,1.163,0,0,0,7.5-4.988V-9.512A1.157,1.157,0,0,0,6.324-10.586Z" transform="translate(7.5 16.253)" fill="#a4c639"/>
</svg>
