<?xml version="1.0" encoding="UTF-8"?>
<svg width="12px" height="16px" viewBox="0 0 12 16" version="1.1" xmlns="http://www.w3.org/2000/svg" xmlns:xlink="http://www.w3.org/1999/xlink">
    <!-- Generator: Sketch 47.1 (45422) - http://www.bohemiancoding.com/sketch -->
    <title>Shape</title>
    <desc>Created with Sketch.</desc>
    <defs></defs>
    <g id="Page-1" stroke="none" stroke-width="1" fill="none" fill-rule="evenodd">
        <path d="M7.77192113,15.2429282 L7.77192113,12.4315088 C7.77629247,12.3061461 7.72882823,12.184519 7.64069968,12.0952538 C7.55143453,12.0071253 7.42980742,11.9596611 7.30444474,11.9640324 L4.49138507,11.9640324 C4.36602238,11.9596611 4.24439528,12.0071253 4.15513012,12.0952538 C4.06700157,12.184519 4.01953733,12.3061461 4.02390868,12.4315088 L4.02390868,15.2429282 C4.01953733,15.3682909 4.06700157,15.489918 4.15513012,15.5791831 C4.24411934,15.667912 4.365781,15.7159831 4.49138507,15.7120449 L7.30280447,15.7120449 C7.42816715,15.7164162 7.54979426,15.6689519 7.63905942,15.5808234 C7.72821103,15.4914395 7.77631713,15.3690955 7.77192113,15.2429282 Z M11.5215738,5.40132002 C11.5174978,4.53734625 11.2293058,3.69870727 10.7014398,3.01473004 C10.1744671,2.29386142 9.48121713,1.71090122 8.68062961,1.31541236 C7.90865672,0.924327434 7.05607893,0.718765206 6.19070275,0.715074259 C3.93716448,0.646843702 1.83677347,1.85177817 0.758135032,3.83158352 C0.684901673,3.9262436 0.655726078,4.04774027 0.67799024,4.16533264 C0.700254385,4.28292501 0.77182525,4.38534702 0.874594062,4.44668403 L2.80847007,5.91144338 C2.88751162,5.97397628 2.98667697,6.00547588 3.08731563,6.00001785 C3.23086123,6.00607607 3.36800248,5.94027286 3.4530954,5.82450917 C3.81444028,5.32421776 4.23771978,4.87172755 4.71282125,4.47784912 C5.08441205,4.23336504 5.52315578,4.11120501 5.96762629,4.12847203 C6.41425816,4.12184021 6.8518074,4.2548827 7.2191508,4.50901421 C7.53905734,4.68372023 7.74754235,5.00974871 7.77192113,5.37343546 C7.78792468,5.69746715 7.68332525,6.01594031 7.47831315,6.26738154 C7.19433343,6.55130751 6.85559146,6.77453121 6.48267046,6.92348875 C5.8354583,7.22073768 5.25896747,7.65240685 4.79155412,8.18977567 C4.31083253,8.68269493 4.03577859,9.34012662 4.02226841,10.0285161 L4.02226841,10.5550422 C4.01789706,10.6804049 4.0653613,10.802032 4.15348985,10.8912971 C4.24259546,10.9810497 4.36497456,11.0297637 4.49138507,11.0257991 L7.30280447,11.0257991 C7.42816715,11.0301704 7.54979426,10.9827062 7.63905942,10.8945777 C7.72821103,10.8051936 7.77631713,10.6828498 7.77192113,10.5566824 C7.80476042,10.2896955 7.91413381,10.0379088 8.08685259,9.83168397 C8.29654006,9.53419074 8.56929603,9.28663807 8.88566312,9.1066855 C9.19840756,8.93063007 9.43788669,8.79175404 9.60410052,8.69005742 C9.84027134,8.53510866 10.0655183,8.36411823 10.2782507,8.17829379 C10.5291992,7.97601806 10.7501125,7.73908862 10.9343579,7.47461881 C11.1079178,7.19788018 11.2457045,6.90026064 11.3444249,6.58887407 C11.4679897,6.20536686 11.5278334,5.8041933 11.5215738,5.40132002 L11.5215738,5.40132002 Z" id="Shape" fill="#999999" fill-rule="nonzero"></path>
    </g>
</svg>