<svg xmlns="http://www.w3.org/2000/svg" width="60" height="60" viewBox="0 0 60 60">
  <g id="Group_2175" data-name="Group 2175" transform="translate(-244 -30)">
    <g id="Rectangle_6212" data-name="Rectangle 6212" transform="translate(244 30)" fill="#fff" stroke="#ddd" stroke-width="1">
      <rect width="60" height="60" rx="12" stroke="none"/>
      <rect x="0.5" y="0.5" width="59" height="59" rx="11.5" fill="none"/>
    </g>
    <path id="Path_281" data-name="Path 281" d="M48.332,14.106A7.126,7.126,0,0,1,41.095,7.1a7.24,7.24,0,0,1,14.472,0A7.125,7.125,0,0,1,48.332,14.106Zm0-10.522A3.57,3.57,0,0,0,44.706,7.1a3.626,3.626,0,0,0,7.249,0A3.567,3.567,0,0,0,48.332,3.583ZM38.438,4.937a1.84,1.84,0,0,1-1.155-.4,3.7,3.7,0,0,0-4.951.013l0-.007a1.852,1.852,0,0,1-1.146.394,1.788,1.788,0,0,1-1.816-1.758,1.727,1.727,0,0,1,.572-1.28h0l.022-.018c.045-.039.09-.075.138-.11a7.414,7.414,0,0,1,9.49.044.152.152,0,0,1,.016.016c.046.037.094.071.138.112l-.005.005a1.727,1.727,0,0,1,.519,1.231A1.788,1.788,0,0,1,38.438,4.937ZM21.207,14.106A7.125,7.125,0,0,1,13.972,7.1,7.125,7.125,0,0,1,21.207.084,7.127,7.127,0,0,1,28.444,7.1,7.126,7.126,0,0,1,21.207,14.106Zm0-10.55A3.6,3.6,0,0,0,17.555,7.1a3.655,3.655,0,0,0,7.305,0A3.6,3.6,0,0,0,21.207,3.555Z" transform="translate(238.799 52.894)" fill="#e7461a" fill-rule="evenodd"/>
  </g>
</svg>
